<svg version="1.1" id="Layer_1" xmlns="http://www.w3.org/2000/svg" xmlns:xlink="http://www.w3.org/1999/xlink" x="0px" y="0px"
	 width="100%" viewBox="0 0 225 225" enable-background="new 0 0 225 225" xml:space="preserve">
<path fill="#974DE8" opacity="1.000000" stroke="none" 
	d="
M202.000000,226.000000 
	C198.969406,226.000000 195.938812,226.000000 192.454071,225.555237 
	C191.684036,219.708801 190.381760,214.127197 191.325317,208.955292 
	C192.299500,203.615509 190.821136,200.788422 186.559647,198.387924 
	C188.388824,196.024536 190.296753,194.118652 191.680130,191.887512 
	C199.824295,178.752487 198.721329,165.839127 190.729218,153.003845 
	C191.424667,150.330658 192.324829,147.813354 192.188889,145.353333 
	C191.639664,135.414886 190.408127,125.504135 190.133408,115.563683 
	C189.906830,107.365112 190.836548,99.141747 190.969727,90.924767 
	C191.384979,65.304863 191.672455,39.682865 191.979584,14.061323 
	C191.997330,12.579586 191.845322,11.078957 191.605057,9.614562 
	C191.132248,6.732834 190.541794,3.870410 190.000000,1.000000 
	C194.024551,1.000000 198.049088,1.000000 202.536819,1.467883 
	C203.000031,11.015574 203.000076,20.095381 203.000076,29.175188 
	C203.000092,61.144875 202.987518,93.114578 203.016861,125.084236 
	C203.020325,128.849243 203.047318,132.634659 203.420181,136.375031 
	C204.469604,146.902771 199.927124,157.113754 201.745865,167.678513 
	C201.872726,168.415421 201.195404,169.256927 201.151978,170.063766 
	C201.048798,171.981277 201.086792,173.907257 201.094421,175.829697 
	C201.111725,180.184647 200.183746,184.742371 203.841980,188.323105 
	C204.105164,188.580719 203.967972,189.288300 203.951630,189.784515 
	C203.640228,199.236343 203.371048,208.690109 202.966232,218.138031 
	C202.853546,220.767654 202.333282,223.379822 202.000000,226.000000 
z"/>
<path fill="#F9555F" opacity="1.000000" stroke="none" 
	d="
M18.000000,226.000000 
	C15.299371,226.000000 12.598741,226.000000 9.449131,225.531342 
	C9.000101,150.375122 9.000051,75.687561 9.000000,1.000000 
	C11.700629,1.000000 14.401259,1.000000 17.550989,1.468657 
	C18.000059,76.624878 18.000029,151.312439 18.000000,226.000000 
z"/>
<path fill="#F35466" opacity="1.000000" stroke="none" 
	d="
M18.444164,226.000000 
	C18.000029,151.312439 18.000059,76.624878 18.000046,1.468657 
	C20.700014,1.000000 23.400026,1.000000 26.549999,1.468657 
	C26.999947,11.767617 26.999931,21.597919 26.999926,31.428223 
	C26.999920,41.258530 26.999922,51.088837 26.999922,60.919144 
	C26.999920,70.582832 26.999922,80.246529 26.999922,89.910217 
	C26.999922,99.740524 26.999857,109.570824 26.999943,119.401131 
	C27.000031,129.231430 25.872192,139.231598 27.319618,148.843979 
	C28.749863,158.342255 27.428474,167.639160 27.741474,177.195602 
	C26.773243,178.245209 26.064064,179.099182 25.345661,179.964279 
	C27.175779,181.653717 29.983383,182.979782 26.226952,185.217560 
	C25.882973,185.422470 25.887270,186.369705 25.889153,186.971756 
	C25.900839,190.707977 25.987337,194.443985 25.994392,198.180191 
	C26.011908,207.453430 26.000057,216.726730 26.000000,226.000000 
	C23.629442,226.000000 21.258884,226.000000 18.444164,226.000000 
z"/>
<path fill="#8F4CF8" opacity="1.000000" stroke="none" 
	d="
M211.000000,1.000000 
	C213.700623,1.000000 216.401260,1.000000 219.550934,1.468657 
	C220.000000,76.624878 220.000000,151.312439 220.000000,226.000000 
	C217.299377,226.000000 214.598740,226.000000 211.449066,225.531342 
	C211.000000,189.619217 210.975677,154.175705 211.053467,118.732399 
	C211.058792,116.311028 212.114365,113.900169 212.189835,111.469154 
	C212.402618,104.616035 212.363113,97.754982 212.414795,90.896996 
	C212.444763,86.919319 212.458649,82.941528 212.480133,78.963783 
	C212.487091,77.675354 212.642487,76.367256 212.473572,75.102402 
	C212.062347,72.023071 211.084717,68.966240 211.066849,65.896080 
	C210.940933,44.264656 211.000000,22.632156 211.000000,1.000000 
z"/>
<path fill="#924EF1" opacity="1.000000" stroke="none" 
	d="
M210.555832,1.000000 
	C211.000000,22.632156 210.940933,44.264656 211.066849,65.896080 
	C211.084717,68.966240 212.062347,72.023071 212.473572,75.102402 
	C212.642487,76.367256 212.487091,77.675354 212.480133,78.963783 
	C212.458649,82.941528 212.444763,86.919319 212.414795,90.896996 
	C212.363113,97.754982 212.402618,104.616035 212.189835,111.469154 
	C212.114365,113.900169 211.058792,116.311028 211.053467,118.732399 
	C210.975677,154.175705 211.000000,189.619217 211.000000,225.531342 
	C208.299988,226.000000 205.599976,226.000000 202.449982,226.000000 
	C202.333282,223.379822 202.853546,220.767654 202.966232,218.138031 
	C203.371048,208.690109 203.640228,199.236343 203.951630,189.784515 
	C203.967972,189.288300 204.105164,188.580719 203.841980,188.323105 
	C200.183746,184.742371 201.111725,180.184647 201.094421,175.829697 
	C201.086792,173.907257 201.048798,171.981277 201.151978,170.063766 
	C201.195404,169.256927 201.872726,168.415421 201.745865,167.678513 
	C199.927124,157.113754 204.469604,146.902771 203.420181,136.375031 
	C203.047318,132.634659 203.020325,128.849243 203.016861,125.084236 
	C202.987518,93.114578 203.000092,61.144875 203.000076,29.175188 
	C203.000076,20.095381 203.000031,11.015574 203.000000,1.467883 
	C205.370560,1.000000 207.741104,1.000000 210.555832,1.000000 
z"/>
<path fill="#FE5657" opacity="1.000000" stroke="none" 
	d="
M8.505266,1.000000 
	C9.000051,75.687561 9.000101,150.375122 9.000076,225.531342 
	C6.338760,226.000000 3.677521,226.000000 1.014339,226.000000 
	C1.012397,151.000000 1.012397,76.000000 1.018596,1.000000 
	C3.353374,1.000000 5.681954,1.000000 8.505266,1.000000 
z"/>
<path fill="#EF546D" opacity="1.000000" stroke="none" 
	d="
M28.000526,176.999985 
	C27.428474,167.639160 28.749863,158.342255 27.319618,148.843979 
	C25.872192,139.231598 27.000031,129.231430 26.999943,119.401131 
	C26.999857,109.570824 26.999922,99.740524 26.999922,89.910217 
	C26.999922,80.246529 26.999920,70.582832 26.999922,60.919144 
	C26.999922,51.088837 26.999920,41.258530 26.999926,31.428223 
	C26.999931,21.597919 26.999947,11.767617 26.999981,1.468657 
	C30.030594,1.000000 33.061188,1.000000 36.545792,1.468657 
	C36.999763,48.066940 37.000919,94.196564 36.994862,140.326187 
	C36.994644,141.989456 37.549614,144.083038 36.761074,145.230804 
	C34.829498,148.042313 36.776978,149.173187 38.240845,150.951401 
	C30.954781,159.934372 28.496386,169.855484 30.036804,180.747452 
	C29.157120,179.392654 28.578823,178.196320 28.000526,176.999985 
z"/>
<path fill="#8A4CFE" opacity="1.000000" stroke="none" 
	d="
M220.499481,226.000000 
	C220.000000,151.312439 220.000000,76.624878 220.000000,1.468657 
	C221.995773,1.000000 223.991562,1.000000 225.990509,1.000000 
	C225.993668,76.000000 225.993668,151.000000 225.991028,226.000000 
	C224.325256,226.000000 222.662094,226.000000 220.499481,226.000000 
z"/>
<path fill="#9D4DE0" opacity="1.000000" stroke="none" 
	d="
M189.550018,1.000000 
	C190.541794,3.870410 191.132248,6.732834 191.605057,9.614562 
	C191.845322,11.078957 191.997330,12.579586 191.979584,14.061323 
	C191.672455,39.682865 191.384979,65.304863 190.969727,90.924767 
	C190.836548,99.141747 189.906830,107.365112 190.133408,115.563683 
	C190.408127,125.504135 191.639664,135.414886 192.188889,145.353333 
	C192.324829,147.813354 191.424667,150.330658 190.475143,152.826233 
	C187.919647,150.689240 185.889771,148.547653 183.866302,146.041397 
	C183.149658,144.446655 182.426590,143.216599 181.583160,141.781754 
	C182.589691,141.232895 183.627930,140.666733 184.239395,140.333298 
	C183.761826,137.752319 183.209351,135.707855 183.030228,133.631195 
	C182.349060,125.734116 181.778564,117.827354 181.197861,109.921921 
	C181.138275,109.110741 181.197708,108.266853 181.352875,107.467445 
	C183.861862,94.541168 184.094681,81.588699 181.885498,68.406921 
	C181.908676,68.211792 182.207718,67.956764 182.390457,67.802834 
	C182.784317,67.394417 182.902496,67.102303 182.930725,66.547791 
	C182.933716,66.323021 183.200958,65.961487 183.388138,65.773071 
	C183.671143,65.247276 183.766983,64.909889 183.831085,64.180443 
	C186.072205,55.065346 183.381653,47.688675 178.081177,41.086155 
	C179.338257,39.536278 180.867188,38.037746 180.871124,36.535217 
	C180.884064,31.607176 180.050140,26.675592 180.085297,21.749250 
	C180.134674,14.831010 180.671600,7.916249 181.000000,1.000000 
	C183.700012,1.000000 186.400024,1.000000 189.550018,1.000000 
M183.176956,42.551113 
	C183.181366,42.194027 183.189255,41.836773 183.171570,41.480782 
	C183.171082,41.471169 182.765167,41.465260 182.764435,41.474491 
	C182.736710,41.829960 182.734253,42.187405 183.176956,42.551113 
z"/>
<path fill="#E95373" opacity="1.000000" stroke="none" 
	d="
M38.355576,150.651840 
	C36.776978,149.173187 34.829498,148.042313 36.761074,145.230804 
	C37.549614,144.083038 36.994644,141.989456 36.994862,140.326187 
	C37.000919,94.196564 36.999763,48.066940 36.999901,1.468657 
	C39.370556,1.000000 41.741116,1.000000 44.555782,1.468657 
	C44.999878,13.331272 45.015041,24.725275 44.981071,36.119129 
	C44.976707,37.582314 45.249290,39.891151 44.488819,40.369320 
	C39.767895,43.337738 42.056938,47.512474 42.166908,51.722260 
	C41.236042,58.074028 42.788292,63.567451 44.957108,69.119240 
	C45.109661,74.141121 45.751007,78.929298 45.948132,83.735695 
	C46.172413,89.204262 46.086895,94.690742 45.983311,100.166557 
	C45.700436,115.120331 45.337223,130.072586 44.806152,145.288712 
	C42.522839,147.251938 40.439205,148.951889 38.355576,150.651840 
z"/>
<path fill="#A74ED0" opacity="1.000000" stroke="none" 
	d="
M160.000000,1.000000 
	C163.692902,1.000000 167.385818,1.000000 171.539185,1.468657 
	C171.994293,11.738664 172.337662,21.559166 171.800964,31.331333 
	C171.603912,34.919048 171.268951,37.656120 174.630981,39.329491 
	C172.584229,40.447746 170.523865,41.188194 169.275269,42.631107 
	C166.404114,45.949127 163.928024,49.609001 160.900330,53.030937 
	C159.941177,52.087292 159.373276,51.242847 158.688843,50.183033 
	C158.543564,49.624760 158.636078,49.318508 159.078934,48.912102 
	C159.244003,48.194202 159.179962,47.613098 159.069656,46.625381 
	C159.061752,45.129627 159.100113,44.040482 159.361328,42.713554 
	C159.329269,41.329659 159.074310,40.183556 158.863251,39.035416 
	C158.907120,39.033379 158.892517,39.120010 158.919693,38.761127 
	C158.543686,37.627544 158.140503,36.852844 157.513229,35.841778 
	C156.463669,34.092617 155.638214,32.579823 155.242676,31.046215 
	C156.778595,29.958601 158.774414,28.950689 158.849548,27.815666 
	C159.440231,18.890823 159.663528,9.941667 160.000000,1.000000 
z"/>
<path fill="#DF5280" opacity="1.000000" stroke="none" 
	d="
M53.000000,1.000000 
	C57.025181,1.000000 61.050365,1.000000 65.537773,1.468635 
	C65.997879,9.623244 65.995758,17.309217 65.874611,25.047562 
	C65.838707,25.068771 65.921822,25.037609 66.347115,25.012951 
	C67.114304,25.838041 68.018837,26.753992 67.876030,27.457283 
	C67.414558,29.730005 66.568016,31.924538 65.687866,34.729122 
	C68.144424,33.950241 69.345772,33.569344 70.448837,33.491104 
	C69.945213,34.530327 69.539879,35.266888 68.798241,36.054047 
	C68.375313,37.097588 68.288681,38.090530 68.204559,39.523178 
	C68.142967,42.309368 68.078865,44.655853 67.772354,47.162964 
	C67.017990,46.751644 66.342506,46.257252 66.027077,45.592113 
	C65.301392,44.061897 64.750862,42.448616 64.129250,40.869049 
	C63.515297,41.061440 62.901340,41.253834 62.287384,41.446224 
	C62.485294,44.081409 62.683205,46.716595 62.641983,49.204220 
	C62.265804,48.715874 62.128757,48.375084 61.915672,47.829887 
	C61.690601,47.364319 61.479805,47.170246 60.945488,46.810886 
	C57.909199,44.022438 57.247887,38.945145 52.023281,38.927727 
	C52.503525,37.026791 53.394478,35.513546 53.390480,34.002663 
	C53.361401,23.001507 53.152248,12.000829 53.000000,1.000000 
z"/>
<path fill="#C751A2" opacity="1.000000" stroke="none" 
	d="
M108.000000,226.000000 
	C104.637901,226.000000 101.275795,226.000000 97.456848,225.542679 
	C98.008141,213.455093 98.474800,201.851227 95.351669,190.417404 
	C95.393661,190.410324 95.473679,190.436905 95.912598,190.599091 
	C101.227127,190.821716 102.381012,188.771912 100.953308,182.417572 
	C103.035355,179.397171 105.030731,176.699615 107.360504,174.211273 
	C108.129913,176.272507 108.923813,178.121078 108.941612,179.977127 
	C109.055809,191.887085 109.072769,203.799423 108.953888,215.709290 
	C108.919617,219.142365 108.333252,222.569916 108.000000,226.000000 
z"/>
<path fill="#EF546D" opacity="1.000000" stroke="none" 
	d="
M27.741474,177.195602 
	C28.578823,178.196320 29.157120,179.392654 30.243034,181.039597 
	C32.542805,185.566833 34.334961,189.643448 36.096817,194.097687 
	C36.992046,195.319305 37.917572,196.163300 38.996613,197.088715 
	C39.150124,197.170135 39.237270,197.506577 39.141697,197.918869 
	C38.364437,201.313660 37.135448,204.292374 37.114891,207.279419 
	C37.071964,213.517288 37.667023,219.759552 38.000000,226.000000 
	C34.307091,226.000000 30.614182,226.000000 26.460636,226.000000 
	C26.000057,216.726730 26.011908,207.453430 25.994392,198.180191 
	C25.987337,194.443985 25.900839,190.707977 25.889153,186.971756 
	C25.887270,186.369705 25.882973,185.422470 26.226952,185.217560 
	C29.983383,182.979782 27.175779,181.653717 25.345661,179.964279 
	C26.064064,179.099182 26.773243,178.245209 27.741474,177.195602 
z"/>
<path fill="#C351A8" opacity="1.000000" stroke="none" 
	d="
M108.444168,226.000000 
	C108.333252,222.569916 108.919617,219.142365 108.953888,215.709290 
	C109.072769,203.799423 109.055809,191.887085 108.941612,179.977127 
	C108.923813,178.121078 108.129913,176.272507 107.458900,173.887405 
	C109.142082,170.589676 111.061264,167.825012 113.407188,164.445587 
	C115.880836,168.114029 117.865944,171.057953 119.532059,174.173523 
	C118.142059,176.330399 116.176544,178.300354 116.142357,180.303268 
	C115.882370,195.531876 116.000008,210.766953 116.000000,226.000000 
	C113.629440,226.000000 111.258888,226.000000 108.444168,226.000000 
z"/>
<path fill="#BE50AE" opacity="1.000000" stroke="none" 
	d="
M116.444168,226.000000 
	C116.000008,210.766953 115.882370,195.531876 116.142357,180.303268 
	C116.176544,178.300354 118.142059,176.330399 119.819946,174.369812 
	C122.737251,177.776260 125.047684,181.158096 126.983780,184.657806 
	C125.918877,185.486542 124.641548,186.183929 124.624870,186.910263 
	C124.325790,199.938095 124.179253,212.969421 124.000000,226.000000 
	C121.629440,226.000000 119.258888,226.000000 116.444168,226.000000 
z"/>
<path fill="#E55378" opacity="1.000000" stroke="none" 
	d="
M52.555836,1.000000 
	C53.152248,12.000829 53.361401,23.001507 53.390480,34.002663 
	C53.394478,35.513546 52.503525,37.026791 51.770500,39.120613 
	C48.399349,43.574955 45.284603,47.447624 42.169857,51.320293 
	C42.056938,47.512474 39.767895,43.337738 44.488819,40.369320 
	C45.249290,39.891151 44.976707,37.582314 44.981071,36.119129 
	C45.015041,24.725275 44.999878,13.331272 44.999947,1.468657 
	C47.370556,1.000000 49.741116,1.000000 52.555836,1.000000 
z"/>
<path fill="#E55375" opacity="1.000000" stroke="none" 
	d="
M38.464653,226.000000 
	C37.667023,219.759552 37.071964,213.517288 37.114891,207.279419 
	C37.135448,204.292374 38.364437,201.313660 39.445229,198.086273 
	C42.948406,200.071854 46.052475,202.302353 49.152035,204.931381 
	C52.205330,208.760773 52.197227,212.912888 52.024170,217.149368 
	C51.903843,220.095001 52.000355,223.049469 52.000000,226.000000 
	C47.643101,226.000000 43.286201,226.000000 38.464653,226.000000 
z"/>
<path fill="#CC5198" opacity="1.000000" stroke="none" 
	d="
M95.309677,190.424484 
	C98.474800,201.851227 98.008141,213.455093 97.000000,225.542679 
	C93.638710,226.000000 90.277428,226.000000 86.457962,225.532196 
	C85.955009,220.118652 85.830338,215.171722 85.902229,210.227661 
	C85.933861,208.052917 86.365532,205.883987 86.679893,203.153748 
	C86.524124,203.018433 85.681427,202.286438 85.018814,201.289062 
	C88.569160,197.490616 91.939415,193.957550 95.309677,190.424484 
z"/>
<path fill="#A34ED9" opacity="1.000000" stroke="none" 
	d="
M174.986038,39.270721 
	C171.268951,37.656120 171.603912,34.919048 171.800964,31.331333 
	C172.337662,21.559166 171.994293,11.738664 171.999817,1.468657 
	C174.700012,1.000000 177.400024,1.000000 180.550018,1.000000 
	C180.671600,7.916249 180.134674,14.831010 180.085297,21.749250 
	C180.050140,26.675592 180.884064,31.607176 180.871124,36.535217 
	C180.867188,38.037746 179.338257,39.536278 177.812714,41.013054 
	C176.407135,40.416557 175.696594,39.843639 174.986038,39.270721 
z"/>
<path fill="#B450BA" opacity="1.000000" stroke="none" 
	d="
M143.000000,226.000000 
	C139.637894,226.000000 136.275803,226.000000 132.457062,225.531342 
	C131.999222,216.767517 131.916656,208.471054 132.046555,200.177948 
	C132.085312,197.703918 132.719223,195.239212 133.377869,192.941406 
	C137.496094,196.610901 141.316895,200.109222 144.919769,203.958450 
	C144.134903,206.104309 143.151810,207.882568 143.079071,209.697327 
	C142.861496,215.123886 143.000320,220.564728 143.000000,226.000000 
z"/>
<path fill="#D9548A" opacity="1.000000" stroke="none" 
	d="
M70.547119,33.188446 
	C69.345772,33.569344 68.144424,33.950241 65.687866,34.729122 
	C66.568016,31.924538 67.414558,29.730005 67.876030,27.457283 
	C68.018837,26.753992 67.114304,25.838041 66.344643,25.009739 
	C66.000000,25.000019 65.993637,24.995192 65.993637,24.995192 
	C65.995758,17.309217 65.997879,9.623244 66.000000,1.468635 
	C69.030594,1.000000 72.061188,1.000000 75.545891,1.468640 
	C76.000015,7.881734 76.196152,13.835177 75.924286,19.767170 
	C75.768707,23.161854 76.624802,25.410517 79.845886,26.509819 
	C76.596092,28.898451 73.571609,31.043447 70.547119,33.188446 
z"/>
<path fill="#BB50B5" opacity="1.000000" stroke="none" 
	d="
M133.080444,192.770233 
	C132.719223,195.239212 132.085312,197.703918 132.046555,200.177948 
	C131.916656,208.471054 131.999222,216.767517 132.000214,225.531342 
	C129.629440,226.000000 127.258888,226.000000 124.444168,226.000000 
	C124.179253,212.969421 124.325790,199.938095 124.624870,186.910263 
	C124.641548,186.183929 125.918877,185.486542 126.976761,184.689728 
	C127.344078,184.603790 127.306450,184.655716 127.256317,185.006897 
	C127.833595,185.902267 128.460999,186.446457 129.364410,187.164505 
	C130.787109,189.148972 131.933792,190.959610 133.080444,192.770233 
z"/>
<path fill="#C458B0" opacity="1.000000" stroke="none" 
	d="
M112.000000,1.000000 
	C115.030594,1.000000 118.061188,1.000000 121.545242,1.467345 
	C122.668724,9.816224 123.338745,17.697758 123.788811,25.756268 
	C123.736610,26.577900 123.904358,27.222557 123.947044,28.144873 
	C123.539787,28.961308 123.257599,29.500082 122.646194,29.910213 
	C118.315903,28.434292 114.395004,26.349251 110.295921,25.903759 
	C103.239853,25.136900 96.072800,25.391247 88.974289,25.137413 
	C88.996254,25.057823 89.064270,24.907360 89.518639,24.932743 
	C93.648827,24.925047 97.324646,24.891964 101.455063,24.893005 
	C102.899284,24.944689 103.897934,24.882671 104.876961,24.993752 
	C108.859062,25.445568 111.453636,24.712757 111.351074,19.708630 
	C111.223404,13.479469 111.753792,7.236823 112.000000,1.000000 
M120.657112,26.270329 
	C120.812630,26.280096 120.982742,26.333178 121.119453,26.287123 
	C121.249489,26.243322 121.344635,26.095932 121.455124,25.994089 
	C120.714302,25.650394 119.973480,25.306700 119.232658,24.963003 
	C119.144447,25.177696 119.056236,25.392387 118.968033,25.607079 
	C119.365990,25.782598 119.763947,25.958117 120.657112,26.270329 
z"/>
<path fill="#D2518E" opacity="1.000000" stroke="none" 
	d="
M84.838730,201.554428 
	C85.681427,202.286438 86.524124,203.018433 86.679893,203.153748 
	C86.365532,205.883987 85.933861,208.052917 85.902229,210.227661 
	C85.830338,215.171722 85.955009,220.118652 85.999893,225.532196 
	C81.975456,226.000000 77.950912,226.000000 73.463333,225.532166 
	C72.999969,221.133987 73.386475,217.148788 72.840050,213.295898 
	C72.556595,211.297302 70.622414,209.532791 69.790695,207.487488 
	C75.044533,205.393112 79.941635,203.473770 84.838730,201.554428 
z"/>
<path fill="#A94ED0" opacity="1.000000" stroke="none" 
	d="
M171.000000,226.000000 
	C166.310745,226.000000 161.621490,226.000000 156.465469,225.531891 
	C156.003448,219.112961 156.008209,213.162155 156.412918,207.178131 
	C160.040237,207.368668 163.267609,207.592407 166.868713,207.878204 
	C167.492691,207.974716 167.742905,208.009140 168.266754,208.299316 
	C172.287918,208.921143 172.172714,211.543259 171.932770,214.291000 
	C171.592194,218.191422 171.308182,222.096756 171.000000,226.000000 
z"/>
<path fill="#C851A5" opacity="1.000000" stroke="none" 
	d="
M111.539368,1.000000 
	C111.753792,7.236823 111.223404,13.479469 111.351074,19.708630 
	C111.453636,24.712757 108.859062,25.445568 104.876961,24.993752 
	C103.897934,24.882671 102.899284,24.944689 101.444283,24.523029 
	C100.652611,16.412621 100.326309,8.706310 100.000000,1.000000 
	C103.692909,1.000000 107.385818,1.000000 111.539368,1.000000 
z"/>
<path fill="#AB4DC0" opacity="1.000000" stroke="none" 
	d="
M156.012970,207.211334 
	C156.008209,213.162155 156.003448,219.112961 155.999359,225.531891 
	C151.975449,226.000000 147.950912,226.000000 143.463181,226.000000 
	C143.000320,220.564728 142.861496,215.123886 143.079071,209.697327 
	C143.151810,207.882568 144.134903,206.104309 145.293030,204.019012 
	C149.260468,204.889542 152.636719,206.050446 156.012970,207.211334 
z"/>
<path fill="#B14FC3" opacity="1.000000" stroke="none" 
	d="
M141.000000,1.000000 
	C144.362106,1.000000 147.724197,1.000000 151.543152,1.468643 
	C152.000000,7.016418 151.791855,12.106802 152.065674,17.171129 
	C152.285797,21.242081 151.933228,24.813694 147.625763,26.988689 
	C145.499191,26.523232 143.748825,26.125216 141.999084,25.286970 
	C141.666458,16.897827 141.333221,8.948914 141.000000,1.000000 
z"/>
<path fill="#BD53B6" opacity="1.000000" stroke="none" 
	d="
M124.008759,25.579290 
	C123.338745,17.697758 122.668724,9.816224 121.999359,1.467345 
	C125.030594,1.000000 128.061188,1.000000 131.545898,1.468357 
	C132.000046,6.411300 132.116287,10.889692 131.969849,15.359479 
	C131.798889,20.577875 133.366028,24.444067 138.545441,25.713261 
	C133.396866,25.742790 128.702805,25.661041 124.008759,25.579290 
z"/>
<path fill="#9C4EE1" opacity="1.000000" stroke="none" 
	d="
M186.396072,198.695160 
	C190.821136,200.788422 192.299500,203.615509 191.325317,208.955292 
	C190.381760,214.127197 191.684036,219.708801 191.999969,225.555237 
	C188.969406,226.000000 185.938812,226.000000 182.396545,225.600571 
	C182.428024,218.061081 182.971161,210.921021 183.462555,204.461105 
	C182.681396,204.237915 181.220306,203.820480 179.995972,203.188324 
	C182.287155,201.547440 184.341614,200.121307 186.396072,198.695160 
z"/>
<path fill="#A14ED8" opacity="1.000000" stroke="none" 
	d="
M179.759232,203.403061 
	C181.220306,203.820480 182.681396,204.237915 183.462555,204.461105 
	C182.971161,210.921021 182.428024,218.061081 181.942444,225.600571 
	C178.638718,226.000000 175.277420,226.000000 171.458069,226.000000 
	C171.308182,222.096756 171.592194,218.191422 171.932770,214.291000 
	C172.172714,211.543259 172.287918,208.921143 168.460052,208.205612 
	C168.634567,207.709839 168.832367,207.507751 169.338165,207.102356 
	C173.055206,205.770920 176.407227,204.586990 179.759232,203.403061 
z"/>
<path fill="#AC4FCA" opacity="1.000000" stroke="none" 
	d="
M148.001984,27.056133 
	C151.933228,24.813694 152.285797,21.242081 152.065674,17.171129 
	C151.791855,12.106802 152.000000,7.016418 152.000000,1.468643 
	C154.370560,1.000000 156.741104,1.000000 159.555817,1.000000 
	C159.663528,9.941667 159.440231,18.890823 158.849548,27.815666 
	C158.774414,28.950689 156.778595,29.958601 154.920914,30.967308 
	C152.113480,29.624853 150.057724,28.340494 148.001984,27.056133 
z"/>
<path fill="#D55291" opacity="1.000000" stroke="none" 
	d="
M80.071190,26.266186 
	C76.624802,25.410517 75.768707,23.161854 75.924286,19.767170 
	C76.196152,13.835177 76.000015,7.881734 76.000000,1.468640 
	C78.700012,1.000000 81.400032,1.000000 84.550018,1.466715 
	C84.993141,5.750347 85.582390,9.690290 84.826553,13.352633 
	C83.908707,17.799967 83.927994,21.656889 86.641968,25.295795 
	C84.208664,25.700788 82.139923,25.983486 80.071190,26.266186 
z"/>
<path fill="#DB517D" opacity="1.000000" stroke="none" 
	d="
M52.458069,226.000000 
	C52.000355,223.049469 51.903843,220.095001 52.024170,217.149368 
	C52.197227,212.912888 52.205330,208.760773 49.518013,205.007370 
	C55.583469,205.684601 61.278442,206.684357 66.756287,208.006989 
	C63.686241,208.999268 62.755356,210.751572 62.935497,213.670883 
	C63.188217,217.766327 62.999752,221.888977 63.000000,226.000000 
	C59.638714,226.000000 56.277424,226.000000 52.458069,226.000000 
z"/>
<path fill="#B750BC" opacity="1.000000" stroke="none" 
	d="
M138.999969,25.601978 
	C133.366028,24.444067 131.798889,20.577875 131.969849,15.359479 
	C132.116287,10.889692 132.000046,6.411300 132.000000,1.468357 
	C134.700012,1.000000 137.400024,1.000000 140.550018,1.000000 
	C141.333221,8.948914 141.666458,16.897827 141.624573,25.345226 
	C140.499649,25.763134 139.749802,25.682556 138.999969,25.601978 
z"/>
<path fill="#D05297" opacity="1.000000" stroke="none" 
	d="
M87.006546,25.173502 
	C83.927994,21.656889 83.908707,17.799967 84.826553,13.352633 
	C85.582390,9.690290 84.993141,5.750347 85.000000,1.466715 
	C87.700012,1.000000 90.400032,1.000000 93.550018,1.468057 
	C94.000000,2.756107 94.053200,3.580119 93.991623,4.395462 
	C93.478737,11.186498 96.388451,18.840296 89.098450,23.952135 
	C88.941139,24.062447 89.069290,24.579855 89.064270,24.907360 
	C89.064270,24.907360 88.996254,25.057823 88.649681,25.187370 
	C87.870918,25.269110 87.438736,25.221306 87.006546,25.173502 
z"/>
<path fill="#DB5287" opacity="1.000000" stroke="none" 
	d="
M63.454109,226.000000 
	C62.999752,221.888977 63.188217,217.766327 62.935497,213.670883 
	C62.755356,210.751572 63.686241,208.999268 67.056374,207.896698 
	C68.193703,207.529861 68.813835,207.596207 69.433960,207.662537 
	C70.622414,209.532791 72.556595,211.297302 72.840050,213.295898 
	C73.386475,217.148788 72.999969,221.133987 73.000145,225.532166 
	C69.969406,226.000000 66.938812,226.000000 63.454109,226.000000 
z"/>
<path fill="#CE519E" opacity="1.000000" stroke="none" 
	d="
M89.518639,24.932743 
	C89.069290,24.579855 88.941139,24.062447 89.098450,23.952135 
	C96.388451,18.840296 93.478737,11.186498 93.991623,4.395462 
	C94.053200,3.580119 94.000000,2.756107 94.000000,1.468057 
	C95.714355,1.000000 97.428719,1.000000 99.571533,1.000000 
	C100.326309,8.706310 100.652611,16.412621 100.989685,24.488907 
	C97.324646,24.891964 93.648827,24.925047 89.518639,24.932743 
z"/>
<path fill="#130B0F" opacity="1.000000" stroke="none" 
	d="
M69.790695,207.487503 
	C68.813835,207.596207 68.193703,207.529861 67.273499,207.573822 
	C61.278442,206.684357 55.583469,205.684601 49.522522,204.608841 
	C46.052475,202.302353 42.948406,200.071854 39.540802,197.673981 
	C39.237270,197.506577 39.150124,197.170135 38.911781,196.791534 
	C37.824661,195.515305 36.975887,194.617691 36.127113,193.720078 
	C34.334961,189.643448 32.542805,185.566833 30.544420,181.198059 
	C28.496386,169.855484 30.954781,159.934372 38.240845,150.951401 
	C40.439205,148.951889 42.522839,147.251938 45.150288,145.223648 
	C50.495911,143.013748 55.297718,141.132202 60.529327,139.283386 
	C62.977024,139.188995 64.994919,139.061874 67.386528,139.064362 
	C71.648811,140.235153 75.537376,141.276321 79.686249,142.580261 
	C84.445419,145.993607 89.316048,147.436508 94.440178,144.827866 
	C95.588203,144.243423 96.826263,141.155304 96.306656,140.399078 
	C92.099991,134.276886 87.483856,128.436050 82.957794,122.347855 
	C82.922989,122.186287 82.615196,122.065781 82.592720,121.691986 
	C82.093025,120.764961 81.615799,120.211723 81.061234,119.335175 
	C77.387856,114.140442 73.791824,109.269028 70.139885,104.075661 
	C69.368469,102.892120 68.602348,102.067276 67.945671,101.162971 
	C63.725266,95.351089 59.528839,89.521805 55.285992,83.752243 
	C55.247452,83.806259 55.378685,83.825966 55.345177,83.501366 
	C54.913746,82.673820 54.515823,82.170883 54.008827,81.353394 
	C51.016403,76.990417 48.133053,72.942001 45.249706,68.893578 
	C42.788292,63.567451 41.236042,58.074028 42.166908,51.722260 
	C45.284603,47.447624 48.399349,43.574955 51.766876,39.509399 
	C57.247887,38.945145 57.909199,44.022438 60.984131,47.035496 
	C61.437263,47.781380 61.672989,47.961983 61.991711,48.034298 
	C62.128757,48.375084 62.265804,48.715874 62.705521,49.455566 
	C63.272457,50.049728 63.536720,50.244980 63.844856,50.436745 
	C63.888729,50.433262 63.907242,50.519321 63.932640,50.846611 
	C68.297310,57.142258 72.636574,63.110615 77.088226,69.393463 
	C79.317825,72.539803 81.435051,75.371658 83.685783,78.526558 
	C87.444633,83.948235 91.069984,89.046875 94.808380,94.472137 
	C97.456985,98.245102 99.992546,101.691444 102.645706,105.475365 
	C106.178123,110.585869 109.592949,115.358803 113.403214,120.684441 
	C114.520409,119.027176 115.210709,118.003159 116.155548,116.752670 
	C119.046104,112.702469 121.682121,108.878754 124.525177,104.864883 
	C124.739464,104.487465 124.746712,104.300194 124.942673,104.029388 
	C125.131401,103.945847 125.224472,103.543701 125.482727,103.452484 
	C126.876129,101.718170 128.011276,100.075073 129.409424,98.191940 
	C130.878311,95.709473 132.084152,93.467033 133.238861,91.202911 
	C133.187714,91.181229 133.220428,91.287392 133.566162,91.245369 
	C136.712006,87.378761 139.512115,83.554169 142.604767,79.526932 
	C145.381119,75.888466 147.908340,72.483017 150.338608,69.009735 
	C154.024963,63.741280 157.643967,58.425701 161.291595,53.130142 
	C163.928024,49.609001 166.404114,45.949127 169.275269,42.631107 
	C170.523865,41.188194 172.584229,40.447746 174.630981,39.329491 
	C175.696594,39.843639 176.407135,40.416557 177.386169,41.062569 
	C183.381653,47.688675 186.072205,55.065346 183.610229,64.349190 
	C183.347733,65.260490 183.274338,65.610992 183.200958,65.961487 
	C183.200958,65.961487 182.933716,66.323021 182.707611,66.667755 
	C182.390244,67.327248 182.298981,67.642006 182.207718,67.956764 
	C182.207718,67.956764 181.908676,68.211792 181.606812,68.633591 
	C180.067886,70.974442 178.830826,72.893494 177.345459,74.977325 
	C176.607315,75.984673 176.117477,76.827248 175.701614,77.650864 
	C175.775604,77.631912 175.642014,77.705650 175.361176,77.879036 
	C171.686798,82.947311 168.293274,87.842209 164.620270,92.936882 
	C162.565781,95.770874 160.790771,98.405098 158.728027,101.217773 
	C153.945038,107.894157 149.449799,114.392082 144.643448,121.031784 
	C140.651169,126.294571 136.853378,131.337509 133.347305,136.575699 
	C131.981018,138.616959 131.271774,141.097977 130.263260,143.378693 
	C133.164856,144.280243 136.059738,145.846451 138.970154,145.875885 
	C141.356613,145.899994 143.761536,144.095505 146.483063,142.998566 
	C148.870331,141.977905 150.932800,141.060287 153.419312,140.157913 
	C158.359436,139.880264 162.875534,139.587387 167.723511,139.508301 
	C170.312393,140.267899 172.569351,140.813675 174.955200,141.426331 
	C175.084061,141.493195 175.287430,141.285950 175.477219,141.539673 
	C176.441727,142.082291 177.216446,142.371170 178.247192,142.897934 
	C180.288773,144.225891 182.074326,145.315979 183.859879,146.406067 
	C185.889771,148.547653 187.919647,150.689240 190.203583,153.008453 
	C198.721329,165.839127 199.824295,178.752487 191.680130,191.887512 
	C190.296753,194.118652 188.388824,196.024536 186.559647,198.387939 
	C184.341614,200.121307 182.287155,201.547440 179.995972,203.188324 
	C176.407227,204.586990 173.055206,205.770920 169.010773,207.052948 
	C167.710571,207.372742 167.102768,207.594437 166.494980,207.816132 
	C163.267609,207.592407 160.040237,207.368668 156.412918,207.178131 
	C152.636719,206.050446 149.260468,204.889542 145.510956,203.668091 
	C141.316895,200.109222 137.496094,196.610901 133.377884,192.941406 
	C131.933792,190.959610 130.787109,189.148972 129.329651,186.843231 
	C128.448044,185.783966 127.877251,185.219849 127.306450,184.655716 
	C127.306450,184.655716 127.344078,184.603790 127.351097,184.571869 
	C125.047684,181.158096 122.737251,177.776260 120.138931,174.198151 
	C117.865944,171.057953 115.880836,168.114029 113.407188,164.445587 
	C111.061264,167.825012 109.142082,170.589676 107.124504,173.678192 
	C105.030731,176.699615 103.035355,179.397171 100.653351,182.591644 
	C98.669037,185.538010 97.071365,187.987457 95.473679,190.436905 
	C95.473679,190.436905 95.393661,190.410324 95.351669,190.417404 
	C91.939415,193.957550 88.569160,197.490616 85.018814,201.289062 
	C79.941635,203.473770 75.044533,205.393112 69.790695,207.487503 
M179.108231,150.278458 
	C178.425278,149.816910 177.742325,149.355362 176.594391,148.369095 
	C165.473373,142.318726 154.886002,143.320526 144.895660,150.833786 
	C144.895660,150.833786 144.915680,150.712387 143.990326,150.703995 
	C138.765549,150.330399 133.540787,149.956802 128.369598,149.604721 
	C128.369598,149.604721 128.345108,149.552277 128.075394,149.026566 
	C127.416901,148.596924 126.758415,148.167282 125.925499,147.345261 
	C125.744049,147.100067 125.501793,146.960175 124.987114,146.320374 
	C124.369484,145.750916 123.751854,145.181458 122.958580,143.971085 
	C121.909920,142.474319 120.920326,140.931732 119.801094,139.489731 
	C116.888130,135.736755 112.586586,134.751923 109.361008,137.032196 
	C106.155724,139.298126 105.374878,143.255096 108.128197,147.193054 
	C116.306274,158.889816 124.749161,170.401413 133.282318,182.632248 
	C137.905411,189.764053 142.790054,196.473083 151.015762,200.123566 
	C167.273254,207.338440 187.901093,196.900116 190.064423,180.058090 
	C190.064423,180.058090 190.079147,180.104965 190.680511,179.713333 
	C191.381653,174.302719 192.807999,168.821716 189.120209,163.924652 
	C189.120209,163.924652 189.211029,163.915131 189.194595,163.172791 
	C187.932999,160.999115 186.671402,158.825439 185.337341,156.631668 
	C185.337341,156.631668 185.369843,156.699493 185.247604,156.156860 
	C184.941254,155.978485 184.634888,155.800125 184.409317,155.600113 
	C184.409317,155.600113 184.406189,155.516556 184.195206,154.910492 
	C182.496796,153.533905 180.798386,152.157318 179.078003,150.909653 
	C179.078003,150.909653 179.208771,150.907623 179.108231,150.278458 
M41.228088,157.004562 
	C40.006706,158.705887 38.440235,160.256256 37.619370,162.132782 
	C31.842409,175.339233 36.448269,189.900711 48.774277,197.878632 
	C60.837891,205.686737 75.982567,203.682709 86.487656,192.646576 
	C92.616661,184.147003 98.792030,175.680389 104.861137,167.138260 
	C110.506569,159.192429 110.420227,158.593185 103.821114,151.478210 
	C103.274803,150.889206 102.794243,150.082214 102.110924,149.812012 
	C100.919327,149.340820 99.258949,148.571609 98.376701,149.034927 
	C90.919952,152.950760 84.058205,151.606140 77.096024,147.598892 
	C70.763382,143.953995 63.945732,143.227722 56.428349,145.829117 
	C56.285530,145.932205 56.142708,146.035294 55.313839,146.129044 
	C54.296471,146.631714 53.279102,147.134384 51.699471,147.720123 
	C50.756695,148.353729 49.813919,148.987335 48.200527,149.856583 
	C46.101765,152.173157 44.003002,154.489716 41.228088,157.004562 
M82.880875,112.612495 
	C88.856873,120.964775 94.832863,129.317062 100.414650,137.118378 
	C104.610596,134.276764 108.454964,131.673248 112.654144,128.829453 
	C93.150986,101.500618 73.229523,73.585655 53.258999,45.601933 
	C46.525692,52.069450 45.900749,60.516857 51.510593,68.507919 
	C61.738869,83.077797 72.129631,97.533615 82.880875,112.612495 
M168.095306,53.573811 
	C151.000137,77.551147 133.904968,101.528496 116.833122,125.473114 
	C119.946175,129.716049 122.730820,133.511383 125.731293,137.600891 
	C129.963058,131.747803 133.803864,126.476631 137.601135,121.174286 
	C144.339966,111.764503 151.053925,102.336929 157.775406,92.914719 
	C163.851517,84.397217 170.018036,75.942146 175.968796,67.337898 
	C181.023682,60.029018 179.777603,50.293190 173.252945,46.094048 
	C171.666260,48.375027 170.070114,50.669605 168.095306,53.573811 
z"/>
<path fill="#9F4DDA" opacity="1.000000" stroke="none" 
	d="
M183.866302,146.041397 
	C182.074326,145.315979 180.288773,144.225891 178.131775,142.574341 
	C176.936035,141.770569 176.111740,141.528259 175.287430,141.285950 
	C175.287430,141.285950 175.084061,141.493195 175.159805,141.106979 
	C175.684540,140.057892 176.530518,139.390396 176.522888,138.732819 
	C176.411911,129.158783 176.148788,119.586639 176.003586,110.012817 
	C175.921967,104.632103 176.127960,99.243767 175.919632,93.869911 
	C175.841354,91.850700 174.957840,89.862701 174.248749,87.113335 
	C176.488983,84.992165 178.662689,81.862991 175.642014,77.705650 
	C175.642014,77.705650 175.775604,77.631912 176.089203,77.736740 
	C177.173126,77.467850 177.943436,77.094131 178.713745,76.720421 
	C178.340408,76.084465 177.967087,75.448502 177.593750,74.812546 
	C178.830826,72.893494 180.067886,70.974442 181.583618,68.828720 
	C184.094681,81.588699 183.861862,94.541168 181.352875,107.467445 
	C181.197708,108.266853 181.138275,109.110741 181.197861,109.921921 
	C181.778564,117.827354 182.349060,125.734116 183.030228,133.631195 
	C183.209351,135.707855 183.761826,137.752319 184.239395,140.333298 
	C183.627930,140.666733 182.589691,141.232895 181.583160,141.781754 
	C182.426590,143.216599 183.149658,144.446655 183.866302,146.041397 
z"/>
<path fill="#A34ED9" opacity="1.000000" stroke="none" 
	d="
M182.952698,42.547852 
	C182.734253,42.187405 182.736710,41.829960 182.764435,41.474491 
	C182.765167,41.465260 183.171082,41.471169 183.171570,41.480782 
	C183.189255,41.836773 183.181366,42.194027 182.952698,42.547852 
z"/>
<path fill="#9F4DDA" opacity="1.000000" stroke="none" 
	d="
M182.390457,67.802834 
	C182.298981,67.642006 182.390244,67.327248 182.704636,66.892532 
	C182.902496,67.102303 182.784317,67.394417 182.390457,67.802834 
z"/>
<path fill="#9F4DDA" opacity="1.000000" stroke="none" 
	d="
M183.388138,65.773071 
	C183.274338,65.610992 183.347733,65.260490 183.641968,64.741257 
	C183.766983,64.909889 183.671143,65.247276 183.388138,65.773071 
z"/>
<path fill="#E3527A" opacity="1.000000" stroke="none" 
	d="
M44.957108,69.119240 
	C48.133053,72.942001 51.016403,76.990417 54.007355,81.704247 
	C54.536205,82.855087 54.957443,83.340530 55.378685,83.825966 
	C55.378685,83.825966 55.247452,83.806259 55.182961,84.128044 
	C54.787880,85.906021 53.948425,87.470650 54.230873,88.796219 
	C54.850552,91.704445 56.800743,94.474792 56.863834,97.331116 
	C57.157745,110.637054 56.994068,123.953102 56.994068,137.349670 
	C57.932571,137.924164 59.016048,138.587418 60.099525,139.250656 
	C55.297718,141.132202 50.495911,143.013748 45.349968,144.960373 
	C45.337223,130.072586 45.700436,115.120331 45.983311,100.166557 
	C46.086895,94.690742 46.172413,89.204262 45.948132,83.735695 
	C45.751007,78.929298 45.109661,74.141121 44.957108,69.119240 
z"/>
<path fill="#FAF4FA" opacity="1.000000" stroke="none" 
	d="
M138.545441,25.713261 
	C139.749802,25.682556 140.499649,25.763134 141.623978,25.785454 
	C143.748825,26.125216 145.499191,26.523232 147.625763,26.988689 
	C150.057724,28.340494 152.113480,29.624853 154.490997,30.988119 
	C155.638214,32.579823 156.463669,34.092617 157.544220,36.176697 
	C158.163696,37.538658 158.528107,38.329334 158.892517,39.120010 
	C158.892517,39.120010 158.907120,39.033379 158.812012,39.429703 
	C158.857422,40.867802 158.997940,41.909569 159.138458,42.951340 
	C159.100113,44.040482 159.061752,45.129627 158.953491,46.948616 
	C158.872345,48.135273 158.861084,48.592091 158.849823,49.048904 
	C158.636078,49.318508 158.543564,49.624760 158.404800,50.411240 
	C154.228561,57.978043 148.910294,63.014370 139.608673,62.235733 
	C138.462646,62.202496 137.695496,62.240101 136.473602,62.196457 
	C131.023300,62.146969 126.027733,62.178726 120.584663,62.138641 
	C117.425873,62.006687 114.714584,61.946579 111.870087,61.806404 
	C111.736870,61.726337 111.426315,61.712784 111.157379,61.480446 
	C109.354309,60.714588 107.820175,60.181065 106.279968,59.576111 
	C106.273895,59.504684 106.156975,59.421707 105.972168,59.187099 
	C103.453171,55.644501 101.118965,52.336506 98.782715,48.583855 
	C98.704834,45.777992 98.629005,43.416794 98.705307,40.732124 
	C98.895302,39.937382 98.933144,39.466114 99.191620,38.678753 
	C102.584793,37.952057 105.757332,37.541451 108.936920,37.537945 
	C108.799698,38.583042 108.685997,39.229782 108.506523,39.857716 
	C106.266052,47.696396 110.003143,52.901245 118.024933,52.959709 
	C121.651978,52.986149 125.280701,52.782570 129.366913,52.793369 
	C134.964493,52.398087 140.103821,51.892776 145.234100,51.349514 
	C145.225067,51.311562 145.169724,51.256569 145.452667,51.217548 
	C145.914459,50.873116 146.093323,50.567703 146.235229,50.300503 
	C146.198288,50.338715 146.291977,50.388954 146.607773,50.392746 
	C147.291397,49.930252 147.659225,49.463966 148.234497,48.647461 
	C149.922638,43.976841 149.714523,40.051212 145.608322,36.666656 
	C141.508301,35.894333 137.575729,35.588676 133.700180,34.941452 
	C131.742661,34.614544 129.888397,33.669357 127.923370,32.676506 
	C126.596893,30.855261 125.334503,29.361237 124.072105,27.867214 
	C123.904358,27.222557 123.736610,26.577900 123.788811,25.756268 
	C128.702805,25.661041 133.396866,25.742790 138.545441,25.713261 
z"/>
<path fill="#AD53C0" opacity="1.000000" stroke="none" 
	d="
M139.987564,62.306576 
	C148.910294,63.014370 154.228561,57.978043 158.521332,50.626610 
	C159.373276,51.242847 159.941177,52.087292 160.900330,53.030937 
	C157.643967,58.425701 154.024963,63.741280 150.338608,69.009735 
	C147.908340,72.483017 145.381119,75.888466 142.528305,79.072617 
	C142.953705,75.833107 143.746994,72.844963 144.542816,69.857506 
	C145.807846,65.108696 145.132797,64.237053 139.999268,63.716438 
	C139.994064,63.058464 139.990814,62.682518 139.987564,62.306576 
z"/>
<path fill="#AD53C0" opacity="1.000000" stroke="none" 
	d="
M159.361343,42.713554 
	C158.997940,41.909569 158.857422,40.867802 158.768127,39.431740 
	C159.074310,40.183556 159.329269,41.329659 159.361343,42.713554 
z"/>
<path fill="#AD53C0" opacity="1.000000" stroke="none" 
	d="
M158.919693,38.761131 
	C158.528107,38.329334 158.163696,37.538658 157.768311,36.413063 
	C158.140503,36.852844 158.543686,37.627544 158.919693,38.761131 
z"/>
<path fill="#AD53C0" opacity="1.000000" stroke="none" 
	d="
M159.078934,48.912102 
	C158.861084,48.592091 158.872345,48.135273 158.999756,47.355228 
	C159.179962,47.613098 159.244003,48.194202 159.078934,48.912102 
z"/>
<path fill="#FAF4F9" opacity="1.000000" stroke="none" 
	d="
M86.641968,25.295795 
	C87.438736,25.221306 87.870918,25.269110 88.627716,25.266958 
	C96.072800,25.391247 103.239853,25.136900 110.295921,25.903759 
	C114.395004,26.349251 118.315903,28.434292 122.823441,30.171099 
	C124.241348,31.703421 125.152809,32.846210 126.128555,34.350296 
	C127.083000,38.626884 127.973175,42.542179 128.626343,46.751686 
	C128.213943,48.020851 128.038574,48.995808 127.902084,49.960487 
	C127.940979,49.950207 127.892937,49.885685 127.640823,50.033142 
	C124.542900,50.845142 121.697105,51.509686 118.754631,52.196808 
	C118.754631,47.683212 119.373260,44.003548 118.596123,40.647041 
	C117.650917,36.564663 114.477707,34.416721 109.520584,34.992302 
	C105.374840,34.991585 101.684479,35.051666 97.578880,35.072079 
	C93.582497,35.314137 89.989792,35.925617 86.422913,35.800598 
	C81.020828,35.611256 78.130432,37.481964 77.385201,42.388603 
	C76.586830,47.645096 79.092758,51.019196 85.023651,52.386337 
	C91.524635,52.959137 98.287628,51.596916 101.628601,59.128365 
	C102.069603,60.122482 103.721237,60.579556 104.643501,61.484116 
	C103.957626,62.109257 103.440437,62.535637 102.500458,62.979076 
	C98.066902,63.053131 94.056137,63.110126 89.666992,63.097240 
	C88.524109,63.067959 87.759621,63.108566 86.608154,63.086639 
	C83.875778,62.323257 81.530373,61.622414 78.969368,60.682236 
	C77.939110,60.232582 77.124458,60.022251 76.248215,59.839489 
	C76.186630,59.867054 76.228706,59.738834 76.090271,59.430058 
	C71.510185,56.257866 69.185577,52.007935 68.014771,47.002338 
	C68.078865,44.655853 68.142967,42.309368 68.384865,39.251858 
	C68.753288,37.695038 68.943909,36.849243 69.134537,36.003448 
	C69.539879,35.266888 69.945213,34.530327 70.448837,33.491104 
	C73.571609,31.043447 76.596092,28.898451 79.845886,26.509819 
	C82.139923,25.983486 84.208664,25.700788 86.641968,25.295795 
z"/>
<path fill="#CE5485" opacity="1.000000" stroke="none" 
	d="
M67.772354,47.162964 
	C69.185577,52.007935 71.510185,56.257866 75.769241,59.526791 
	C74.982590,60.394661 74.378540,60.857018 73.774498,61.319374 
	C74.024651,61.561211 74.274811,61.803043 74.524963,62.044876 
	C75.119911,61.300560 75.714851,60.556240 76.309799,59.811920 
	C77.124458,60.022251 77.939110,60.232582 78.656898,60.738167 
	C78.031967,63.715271 77.503906,66.397125 76.975845,69.078972 
	C72.636574,63.110615 68.297310,57.142258 64.098358,50.630661 
	C64.292137,49.730042 64.345581,49.372662 64.399033,49.015285 
	C64.199684,49.490269 64.000328,49.965248 63.800983,50.440231 
	C63.536720,50.244980 63.272457,50.049728 62.944653,49.603127 
	C62.683205,46.716595 62.485294,44.081409 62.287384,41.446224 
	C62.901340,41.253834 63.515297,41.061440 64.129250,40.869049 
	C64.750862,42.448616 65.301392,44.061897 66.027077,45.592113 
	C66.342506,46.257252 67.017990,46.751644 67.772354,47.162964 
z"/>
<path fill="#D9548A" opacity="1.000000" stroke="none" 
	d="
M68.798233,36.054047 
	C68.943909,36.849243 68.753288,37.695038 68.382355,38.812157 
	C68.288681,38.090530 68.375313,37.097588 68.798233,36.054047 
z"/>
<path fill="#D9548A" opacity="1.000000" stroke="none" 
	d="
M66.002472,25.003233 
	C65.921822,25.037609 65.838707,25.068771 65.874611,25.047562 
	C65.993637,24.995192 66.000000,25.000019 66.002472,25.003233 
z"/>
<path fill="#CE5485" opacity="1.000000" stroke="none" 
	d="
M61.915672,47.829887 
	C61.672989,47.961983 61.437263,47.781380 61.245895,47.267872 
	C61.479805,47.170246 61.690601,47.364319 61.915672,47.829887 
z"/>
<path fill="#CC5198" opacity="1.000000" stroke="none" 
	d="
M95.912605,190.599091 
	C97.071365,187.987457 98.669037,185.538010 100.566681,182.914490 
	C102.381012,188.771912 101.227127,190.821716 95.912605,190.599091 
z"/>
<path fill="#E55375" opacity="1.000000" stroke="none" 
	d="
M36.096817,194.097687 
	C36.975887,194.617691 37.824661,195.515305 38.758266,196.710114 
	C37.917572,196.163300 36.992046,195.319305 36.096817,194.097687 
z"/>
<path fill="#BE50AE" opacity="1.000000" stroke="none" 
	d="
M127.256317,185.006897 
	C127.877251,185.219849 128.448044,185.783966 129.053619,186.669373 
	C128.460999,186.446457 127.833595,185.902267 127.256317,185.006897 
z"/>
<path fill="#BD53B6" opacity="1.000000" stroke="none" 
	d="
M126.064270,33.989002 
	C125.152809,32.846210 124.241348,31.703421 123.152649,30.299744 
	C123.257599,29.500082 123.539787,28.961308 123.947044,28.144873 
	C125.334503,29.361237 126.596893,30.855261 127.675110,32.783958 
	C127.015373,33.475422 126.539825,33.732212 126.064270,33.989002 
z"/>
<path fill="#BD53B6" opacity="1.000000" stroke="none" 
	d="
M120.409508,26.201981 
	C119.763947,25.958117 119.365990,25.782598 118.968033,25.607079 
	C119.056236,25.392387 119.144447,25.177696 119.232658,24.963003 
	C119.973480,25.306700 120.714302,25.650394 121.455124,25.994087 
	C121.344635,26.095932 121.249489,26.243322 121.119453,26.287123 
	C120.982742,26.333178 120.812630,26.280096 120.409508,26.201981 
z"/>
<path fill="#AB4DC0" opacity="1.000000" stroke="none" 
	d="
M166.868713,207.878204 
	C167.102768,207.594437 167.710571,207.372742 168.645752,207.200470 
	C168.832367,207.507751 168.634567,207.709839 168.186432,207.949860 
	C167.742905,208.009140 167.492691,207.974716 166.868713,207.878204 
z"/>
<path fill="#F7F6F6" opacity="1.000000" stroke="none" 
	d="
M82.666740,112.324753 
	C72.129631,97.533615 61.738869,83.077797 51.510593,68.507919 
	C45.900749,60.516857 46.525692,52.069450 53.258999,45.601933 
	C73.229523,73.585655 93.150986,101.500618 112.654144,128.829453 
	C108.454964,131.673248 104.610596,134.276764 100.414650,137.118378 
	C94.832863,129.317062 88.856873,120.964775 82.666740,112.324753 
z"/>
<path fill="#5CC1F5" opacity="1.000000" stroke="none" 
	d="
M168.284637,53.268997 
	C170.070114,50.669605 171.666260,48.375027 173.252945,46.094048 
	C179.777603,50.293190 181.023682,60.029018 175.968796,67.337898 
	C170.018036,75.942146 163.851517,84.397217 157.775406,92.914719 
	C151.053925,102.336929 144.339966,111.764503 137.601135,121.174286 
	C133.803864,126.476631 129.963058,131.747803 125.731293,137.600891 
	C122.730820,133.511383 119.946175,129.716049 116.833122,125.473114 
	C133.904968,101.528496 151.000137,77.551147 168.284637,53.268997 
z"/>
<path fill="#EF9930" opacity="1.000000" stroke="none" 
	d="
M56.955597,145.864578 
	C63.945732,143.227722 70.763382,143.953995 77.096024,147.598892 
	C84.058205,151.606140 90.919952,152.950760 98.376701,149.034927 
	C99.258949,148.571609 100.919327,149.340820 102.110924,149.812012 
	C102.794243,150.082214 103.274803,150.889206 103.821114,151.478210 
	C110.420227,158.593185 110.506569,159.192429 104.861137,167.138260 
	C98.792030,175.680389 92.616661,184.147003 85.821503,192.746735 
	C84.328278,191.701065 83.501205,190.555222 82.794540,189.100021 
	C95.182541,173.080017 84.824425,152.338715 66.352051,150.462570 
	C58.327251,149.647522 51.980522,153.270874 45.723274,158.022339 
	C44.241199,157.621902 43.072716,157.214096 41.904236,156.806290 
	C44.003002,154.489716 46.101765,152.173157 48.567120,150.134033 
	C48.953671,150.939392 48.973625,151.467285 48.876259,152.047974 
	C48.758938,152.100754 48.746075,152.421860 48.746075,152.421860 
	C48.746075,152.421860 49.004852,152.006363 49.337112,151.943710 
	C51.082638,150.692169 52.495895,149.503281 54.073936,148.175781 
	C53.167812,147.906418 52.714775,147.771744 52.261738,147.637070 
	C53.279102,147.134384 54.296471,146.631714 55.688786,146.412064 
	C56.370880,147.137466 56.678028,147.579865 57.112030,148.204224 
	C57.560051,148.376038 57.881218,148.365891 58.202393,148.355743 
	C57.809418,148.229477 57.416443,148.103210 57.013577,147.624847 
	C56.987652,146.803375 56.971622,146.333969 56.955597,145.864578 
M69.952248,148.592819 
	C65.304337,145.084885 64.689819,145.064621 62.853249,148.213516 
	C65.021111,148.443527 67.236702,148.678589 69.952248,148.592819 
z"/>
<path fill="#EE4C2D" opacity="1.000000" stroke="none" 
	d="
M125.198738,146.925568 
	C125.501793,146.960175 125.744049,147.100067 126.038040,147.901276 
	C126.882095,148.822296 127.613602,149.187286 128.345108,149.552277 
	C128.345108,149.552277 128.369598,149.604721 128.389404,149.978485 
	C133.827774,154.304352 139.373322,152.435165 144.915680,150.712387 
	C144.915680,150.712387 144.895660,150.833786 145.232758,150.871994 
	C147.381378,151.607101 149.192871,152.303986 150.792908,153.258682 
	C147.384476,156.679794 144.187515,159.843079 140.773102,163.146423 
	C140.418655,163.596283 140.281647,163.906097 140.145935,164.153473 
	C140.147217,164.091019 140.267166,164.125931 139.923538,164.233795 
	C139.263107,166.198013 138.946289,168.054382 138.680817,170.259598 
	C138.661667,171.071335 138.591202,171.534210 138.206238,172.132202 
	C137.749771,173.485947 137.212036,174.823410 137.535950,175.902145 
	C138.782364,180.053284 137.272705,181.932343 133.088531,181.985397 
	C124.749161,170.401413 116.306274,158.889816 108.128197,147.193054 
	C105.374878,143.255096 106.155724,139.298126 109.361008,137.032196 
	C112.586586,134.751923 116.888130,135.736755 119.801094,139.489731 
	C120.920326,140.931732 121.909920,142.474319 123.055885,144.656326 
	C123.835037,145.869568 124.516891,146.397568 125.198738,146.925568 
z"/>
<path fill="#DD5281" opacity="1.000000" stroke="none" 
	d="
M60.529327,139.283386 
	C59.016048,138.587418 57.932571,137.924164 56.994068,137.349670 
	C56.994068,123.953102 57.157745,110.637054 56.863834,97.331116 
	C56.800743,94.474792 54.850552,91.704445 54.230873,88.796219 
	C53.948425,87.470650 54.787880,85.906021 55.221500,84.074036 
	C59.528839,89.521805 63.725266,95.351089 67.945671,101.162971 
	C68.602348,102.067276 69.368469,102.892120 70.073776,104.413055 
	C68.819435,105.460556 67.575287,105.848694 66.039680,106.327759 
	C69.115952,117.010361 68.411911,127.964973 67.012817,138.934753 
	C64.994919,139.061874 62.977024,139.188995 60.529327,139.283386 
z"/>
<path fill="#A84ECD" opacity="1.000000" stroke="none" 
	d="
M167.391617,139.294510 
	C162.875534,139.587387 158.359436,139.880264 153.487244,139.800018 
	C154.259537,138.603348 155.387924,137.779800 156.017731,137.320145 
	C156.017731,130.192734 155.966278,123.427574 156.071533,116.664856 
	C156.087891,115.615013 157.011032,114.607567 157.188370,113.526939 
	C157.869583,109.376228 158.417877,105.203705 159.015747,101.039322 
	C160.790771,98.405098 162.565781,95.770874 164.708878,93.316696 
	C166.013092,94.569519 167.668518,95.582230 167.763977,96.725227 
	C168.241348,102.441147 168.335464,108.190453 168.507523,113.929718 
	C168.565948,115.878578 168.428680,117.832451 168.431915,119.783958 
	C168.442184,125.962852 168.493546,132.141815 168.454208,138.320267 
	C168.452118,138.647263 167.761642,138.969864 167.391617,139.294510 
z"/>
<path fill="#BF50AE" opacity="1.000000" stroke="none" 
	d="
M125.224472,103.543701 
	C125.224472,103.543701 125.131401,103.945847 124.683754,104.021149 
	C124.094421,104.173111 123.952744,104.249779 123.811066,104.326447 
	C123.980095,104.569313 124.149117,104.812180 124.318146,105.055038 
	C121.682121,108.878754 119.046104,112.702469 115.878845,116.589157 
	C115.386971,114.748154 115.525520,112.840195 115.449455,110.940826 
	C114.993713,99.559853 114.527969,88.178955 113.979729,76.802170 
	C113.773750,72.527748 113.337814,68.264404 113.464020,63.996597 
	C117.281189,63.998634 120.641052,64.000076 124.000687,64.470093 
	C124.000168,74.020485 124.016365,83.102371 123.981041,92.184074 
	C123.975998,93.480591 124.220695,95.376320 123.501358,95.974648 
	C118.866714,99.829506 122.126984,101.613625 125.224472,103.543701 
z"/>
<path fill="#A24DD3" opacity="1.000000" stroke="none" 
	d="
M167.723511,139.508301 
	C167.761642,138.969864 168.452118,138.647263 168.454208,138.320267 
	C168.493546,132.141815 168.442184,125.962852 168.431915,119.783958 
	C168.428680,117.832451 168.565948,115.878578 168.507523,113.929718 
	C168.335464,108.190453 168.241348,102.441147 167.763977,96.725227 
	C167.668518,95.582230 166.013092,94.569519 164.988373,93.116920 
	C168.293274,87.842209 171.686798,82.947311 175.361176,77.879036 
	C178.662689,81.862991 176.488983,84.992165 174.248749,87.113335 
	C174.957840,89.862701 175.841354,91.850700 175.919632,93.869911 
	C176.127960,99.243767 175.921967,104.632103 176.003586,110.012817 
	C176.148788,119.586639 176.411911,129.158783 176.522888,138.732819 
	C176.530518,139.390396 175.684540,140.057892 175.030945,141.040100 
	C172.569351,140.813675 170.312393,140.267899 167.723511,139.508301 
M168.299103,92.844093 
	C168.437088,92.922333 168.575073,93.000572 168.713058,93.078804 
	C168.653702,92.951874 168.594345,92.824936 168.299103,92.844093 
z"/>
<path fill="#E39531" opacity="1.000000" stroke="none" 
	d="
M41.566162,156.905426 
	C43.072716,157.214096 44.241199,157.621902 45.543053,158.293930 
	C41.297771,160.126251 42.199940,164.376053 41.376949,167.558411 
	C39.079098,176.443863 40.964317,184.532379 47.823841,190.817291 
	C54.871815,197.274857 63.256344,199.023788 72.398964,195.973434 
	C75.022499,195.098129 77.453270,193.645020 79.884827,192.738556 
	C80.035736,193.701691 80.274239,194.383133 80.512733,195.064560 
	C80.935356,194.887405 81.357986,194.710251 81.780609,194.533096 
	C81.174469,193.839417 80.568329,193.145737 79.944138,192.144302 
	C80.842102,191.027481 81.758118,190.218430 82.674133,189.409378 
	C83.501205,190.555222 84.328278,191.701065 85.523727,192.906952 
	C75.982567,203.682709 60.837891,205.686737 48.774277,197.878632 
	C36.448269,189.900711 31.842409,175.339233 37.619370,162.132782 
	C38.440235,160.256256 40.006706,158.705887 41.566162,156.905426 
z"/>
<path fill="#C851A0" opacity="1.000000" stroke="none" 
	d="
M90.045380,63.167122 
	C94.056137,63.110126 98.066902,63.053131 102.863945,63.057182 
	C104.766747,65.464302 106.785126,67.786217 106.848732,70.160500 
	C107.181671,82.588829 107.018967,95.030441 107.028381,107.237656 
	C106.226913,106.863686 104.377510,106.000740 102.528107,105.137787 
	C99.992546,101.691444 97.456985,98.245102 95.112434,94.271210 
	C95.714569,92.551399 96.537575,91.330292 96.456459,90.172523 
	C96.247322,87.187546 95.065926,84.182381 95.310997,81.272713 
	C95.786560,75.626518 96.974007,70.040276 97.829071,64.664528 
	C94.499947,64.024078 92.272667,63.595600 90.045380,63.167122 
z"/>
<path fill="#D55289" opacity="1.000000" stroke="none" 
	d="
M67.386528,139.064362 
	C68.411911,127.964973 69.115952,117.010361 66.039680,106.327759 
	C67.575287,105.848694 68.819435,105.460556 70.129684,104.735016 
	C73.791824,109.269028 77.387856,114.140442 81.070969,119.721115 
	C81.643768,120.975517 82.129486,121.520645 82.615196,122.065781 
	C82.615196,122.065781 82.922989,122.186287 82.531181,122.603447 
	C81.760468,126.044342 81.419052,129.073380 80.992722,132.090408 
	C80.510208,135.505051 79.951515,138.908936 79.425949,142.317490 
	C75.537376,141.276321 71.648811,140.235153 67.386528,139.064362 
z"/>
<path fill="#C451A6" opacity="1.000000" stroke="none" 
	d="
M102.645706,105.475365 
	C104.377510,106.000740 106.226913,106.863686 107.028381,107.237656 
	C107.018967,95.030441 107.181671,82.588829 106.848732,70.160500 
	C106.785126,67.786217 104.766747,65.464302 103.286743,63.040123 
	C103.440437,62.535637 103.957626,62.109257 104.834991,61.153130 
	C105.515770,60.222824 105.836372,59.822266 106.156975,59.421707 
	C106.156975,59.421707 106.273895,59.504684 106.339249,59.880478 
	C106.989906,61.339634 107.575195,62.423004 108.253288,63.678162 
	C109.262123,63.053288 110.344223,62.383038 111.426315,61.712784 
	C111.426315,61.712784 111.736870,61.726337 111.984764,62.029697 
	C112.486938,62.545280 112.741219,62.757500 112.998047,63.226295 
	C113.002647,63.653919 113.004684,63.824966 113.006714,63.996010 
	C113.337814,68.264404 113.773750,72.527748 113.979729,76.802170 
	C114.527969,88.178955 114.993713,99.559853 115.449455,110.940826 
	C115.525520,112.840195 115.386971,114.748154 115.624306,116.815643 
	C115.210709,118.003159 114.520409,119.027176 113.403214,120.684441 
	C109.592949,115.358803 106.178123,110.585869 102.645706,105.475365 
z"/>
<path fill="#E24E33" opacity="1.000000" stroke="none" 
	d="
M133.185425,182.308823 
	C137.272705,181.932343 138.782364,180.053284 137.535950,175.902145 
	C137.212036,174.823410 137.749771,173.485947 138.305939,172.563400 
	C137.752716,187.321198 151.487656,200.144806 167.141510,196.993210 
	C177.031738,195.002029 183.455948,188.810608 186.427917,179.204971 
	C187.795197,179.635361 188.952255,179.859131 190.109299,180.082916 
	C187.901093,196.900116 167.273254,207.338440 151.015762,200.123566 
	C142.790054,196.473083 137.905411,189.764053 133.185425,182.308823 
z"/>
<path fill="#AC4EC3" opacity="1.000000" stroke="none" 
	d="
M158.728027,101.217781 
	C158.417877,105.203705 157.869583,109.376228 157.188370,113.526939 
	C157.011032,114.607567 156.087891,115.615013 156.071533,116.664856 
	C155.966278,123.427574 156.017731,130.192734 156.017731,137.320145 
	C155.387924,137.779800 154.259537,138.603348 153.063202,139.784790 
	C150.932800,141.060287 148.870331,141.977905 146.192596,142.726074 
	C145.369751,135.334396 145.162155,128.112198 144.954559,120.889999 
	C149.449799,114.392082 153.945038,107.894157 158.728027,101.217781 
M155.487946,109.728462 
	C155.734039,109.987762 155.980133,110.247063 156.226212,110.506355 
	C156.333572,110.404404 156.440933,110.302452 156.548309,110.200508 
	C156.301880,109.941078 156.055450,109.681648 155.487946,109.728462 
z"/>
<path fill="#BA50B4" opacity="1.000000" stroke="none" 
	d="
M125.482727,103.452484 
	C122.126984,101.613625 118.866714,99.829506 123.501358,95.974648 
	C124.220695,95.376320 123.975998,93.480591 123.981041,92.184074 
	C124.016365,83.102371 124.000168,74.020485 124.454681,64.469437 
	C127.938866,64.000687 130.968826,64.001160 133.985291,64.423782 
	C133.648087,67.936760 133.100983,71.023834 133.049026,74.119225 
	C132.953003,79.839371 133.147156,85.564400 133.220428,91.287392 
	C133.220428,91.287392 133.187714,91.181229 132.852509,91.178879 
	C131.393661,93.595001 130.270035,96.013481 129.146393,98.431969 
	C128.011276,100.075073 126.876129,101.718170 125.482727,103.452484 
z"/>
<path fill="#E34F30" opacity="1.000000" stroke="none" 
	d="
M190.086853,180.070496 
	C188.952255,179.859131 187.795197,179.635361 186.389618,178.857117 
	C186.368576,177.180756 186.596069,176.058868 187.166077,174.901123 
	C189.630234,173.370209 189.114700,172.507156 186.664749,171.797104 
	C186.401932,170.684479 186.312119,169.840973 186.495026,168.935028 
	C187.006424,168.521576 187.245102,168.170593 187.483765,167.819611 
	C186.953003,167.566330 186.422256,167.313065 185.927933,167.042252 
	C185.964371,167.024719 185.947632,167.103836 185.900757,166.909988 
	C185.755997,166.461823 185.599197,166.251419 185.193634,165.773773 
	C177.999100,151.568863 167.043686,147.553391 151.004379,153.000870 
	C149.192871,152.303986 147.381378,151.607101 145.178436,150.843124 
	C154.886002,143.320526 165.473373,142.318726 176.936371,148.920471 
	C177.921814,149.950439 178.565292,150.429031 179.208771,150.907623 
	C179.208771,150.907623 179.078003,150.909653 179.192856,151.181213 
	C181.007202,152.807373 182.706696,154.161957 184.406189,155.516556 
	C184.406189,155.516556 184.409317,155.600113 184.396301,155.903824 
	C184.712143,156.371521 185.040985,156.535507 185.369843,156.699493 
	C185.369843,156.699493 185.337341,156.631668 185.280579,157.015274 
	C186.552872,159.570969 187.881958,161.743042 189.211029,163.915131 
	C189.211029,163.915131 189.120209,163.924652 189.087402,164.325775 
	C189.396118,169.852936 189.737640,174.978943 190.079147,180.104965 
	C190.079147,180.104965 190.064423,180.058090 190.086853,180.070496 
z"/>
<path fill="#CC5198" opacity="1.000000" stroke="none" 
	d="
M89.666992,63.097237 
	C92.272667,63.595600 94.499947,64.024078 97.829071,64.664528 
	C96.974007,70.040276 95.786560,75.626518 95.310997,81.272713 
	C95.065926,84.182381 96.247322,87.187546 96.456459,90.172523 
	C96.537575,91.330292 95.714569,92.551399 94.999390,93.944580 
	C91.069984,89.046875 87.444633,83.948235 84.022217,78.368210 
	C89.592896,73.809616 86.027367,68.053368 86.995125,63.149170 
	C87.759621,63.108566 88.524109,63.067959 89.666992,63.097237 
z"/>
<path fill="#CA4F90" opacity="1.000000" stroke="none" 
	d="
M79.686249,142.580261 
	C79.951515,138.908936 80.510208,135.505051 80.992722,132.090408 
	C81.419052,129.073380 81.760468,126.044342 82.565987,122.765015 
	C87.483856,128.436050 92.099991,134.276886 96.306656,140.399078 
	C96.826263,141.155304 95.588203,144.243423 94.440178,144.827866 
	C89.316048,147.436508 84.445419,145.993607 79.686249,142.580261 
z"/>
<path fill="#B24FBA" opacity="1.000000" stroke="none" 
	d="
M133.566162,91.245369 
	C133.147156,85.564400 132.953003,79.839371 133.049026,74.119225 
	C133.100983,71.023834 133.648087,67.936760 134.413971,64.422935 
	C136.571152,63.999454 138.286179,63.998962 140.001221,63.998474 
	C145.132797,64.237053 145.807846,65.108696 144.542816,69.857506 
	C143.746994,72.844963 142.953705,75.833107 142.235748,79.275269 
	C139.512115,83.554169 136.712006,87.378761 133.566162,91.245369 
z"/>
<path fill="#AE4DB4" opacity="1.000000" stroke="none" 
	d="
M144.643433,121.031784 
	C145.162155,128.112198 145.369751,135.334396 145.867813,142.829102 
	C143.761536,144.095505 141.356613,145.899994 138.970154,145.875885 
	C136.059738,145.846451 133.164856,144.280243 130.263260,143.378693 
	C131.271774,141.097977 131.981018,138.616959 133.347305,136.575699 
	C136.853378,131.337509 140.651169,126.294571 144.643433,121.031784 
z"/>
<path fill="#D15191" opacity="1.000000" stroke="none" 
	d="
M86.608154,63.086636 
	C86.027367,68.053368 89.592896,73.809616 83.888702,78.045166 
	C81.435051,75.371658 79.317825,72.539803 77.088226,69.393463 
	C77.503906,66.397125 78.031967,63.715271 78.872498,60.977493 
	C81.530373,61.622414 83.875778,62.323257 86.608154,63.086636 
z"/>
<path fill="#E24E33" opacity="1.000000" stroke="none" 
	d="
M190.379822,179.909149 
	C189.737640,174.978943 189.396118,169.852936 189.096878,164.281128 
	C192.807999,168.821716 191.381653,174.302719 190.379822,179.909149 
z"/>
<path fill="#E34F30" opacity="1.000000" stroke="none" 
	d="
M144.453003,150.708191 
	C139.373322,152.435165 133.827774,154.304352 128.362610,149.967728 
	C133.540787,149.956802 138.765549,150.330399 144.453003,150.708191 
z"/>
<path fill="#B24FBA" opacity="1.000000" stroke="none" 
	d="
M129.409424,98.191940 
	C130.270035,96.013481 131.393661,93.595001 132.903641,91.200554 
	C132.084152,93.467033 130.878311,95.709473 129.409424,98.191940 
z"/>
<path fill="#F09F39" opacity="1.000000" stroke="none" 
	d="
M51.980606,147.678589 
	C52.714775,147.771744 53.167812,147.906418 54.073936,148.175781 
	C52.495895,149.503281 51.082638,150.692169 49.334686,151.940521 
	C49.000000,152.000000 48.993580,151.995193 48.993580,151.995193 
	C48.973625,151.467285 48.953671,150.939392 48.902428,150.016205 
	C49.813919,148.987335 50.756695,148.353729 51.980606,147.678589 
z"/>
<path fill="#E24E33" opacity="1.000000" stroke="none" 
	d="
M189.202820,163.543961 
	C187.881958,161.743042 186.552872,159.570969 185.316803,157.025330 
	C186.671402,158.825439 187.932999,160.999115 189.202820,163.543961 
z"/>
<path fill="#E24E33" opacity="1.000000" stroke="none" 
	d="
M184.300690,155.213531 
	C182.706696,154.161957 181.007202,152.807373 179.203842,151.116760 
	C180.798386,152.157318 182.496796,153.533905 184.300690,155.213531 
z"/>
<path fill="#A24DD3" opacity="1.000000" stroke="none" 
	d="
M177.345459,74.977325 
	C177.967087,75.448502 178.340408,76.084465 178.713745,76.720421 
	C177.943436,77.094131 177.173126,77.467850 176.015228,77.755692 
	C176.117477,76.827248 176.607315,75.984673 177.345459,74.977325 
z"/>
<path fill="#E34F30" opacity="1.000000" stroke="none" 
	d="
M125.092926,146.622971 
	C124.516891,146.397568 123.835037,145.869568 123.143707,144.976776 
	C123.751854,145.181458 124.369484,145.750916 125.092926,146.622971 
z"/>
<path fill="#E34F30" opacity="1.000000" stroke="none" 
	d="
M128.210251,149.289429 
	C127.613602,149.187286 126.882095,148.822296 126.125259,148.097473 
	C126.758415,148.167282 127.416901,148.596924 128.210251,149.289429 
z"/>
<path fill="#A24DD3" opacity="1.000000" stroke="none" 
	d="
M175.477219,141.539673 
	C176.111740,141.528259 176.936035,141.770569 177.875763,142.336472 
	C177.216446,142.371170 176.441727,142.082291 175.477219,141.539673 
z"/>
<path fill="#E24E33" opacity="1.000000" stroke="none" 
	d="
M179.158508,150.593048 
	C178.565292,150.429031 177.921814,149.950439 177.168854,149.182831 
	C177.742325,149.355362 178.425278,149.816910 179.158508,150.593048 
z"/>
<path fill="#F09F39" opacity="1.000000" stroke="none" 
	d="
M56.691971,145.846848 
	C56.971622,146.333969 56.987652,146.803375 57.002979,147.635468 
	C57.002277,147.998169 56.985176,148.022247 56.985176,148.022247 
	C56.678028,147.579865 56.370880,147.137466 56.031807,146.416748 
	C56.142708,146.035294 56.285530,145.932205 56.691971,145.846848 
z"/>
<path fill="#DD5281" opacity="1.000000" stroke="none" 
	d="
M55.345177,83.501366 
	C54.957443,83.340530 54.536205,82.855087 54.116432,82.018799 
	C54.515823,82.170883 54.913746,82.673820 55.345177,83.501366 
z"/>
<path fill="#CA4F90" opacity="1.000000" stroke="none" 
	d="
M82.592720,121.691986 
	C82.129486,121.520645 81.643768,120.975517 81.148315,120.044434 
	C81.615799,120.211723 82.093025,120.764961 82.592720,121.691986 
z"/>
<path fill="#BA50B4" opacity="1.000000" stroke="none" 
	d="
M124.525177,104.864883 
	C124.149117,104.812180 123.980095,104.569313 123.811066,104.326447 
	C123.952744,104.249779 124.094421,104.173111 124.495026,104.104691 
	C124.746712,104.300194 124.739464,104.487465 124.525177,104.864883 
z"/>
<path fill="#E24E33" opacity="1.000000" stroke="none" 
	d="
M185.308716,156.428177 
	C185.040985,156.535507 184.712143,156.371521 184.355911,155.914642 
	C184.634888,155.800125 184.941254,155.978485 185.308716,156.428177 
z"/>
<path fill="#D25498" opacity="1.000000" stroke="none" 
	d="
M84.648277,52.167946 
	C79.092758,51.019196 76.586830,47.645096 77.385201,42.388603 
	C78.130432,37.481964 81.020828,35.611256 86.422913,35.800598 
	C89.989792,35.925617 93.582497,35.314137 97.581833,35.461376 
	C97.999397,36.929340 97.998756,37.968346 97.614288,39.013039 
	C95.890053,39.018730 94.549644,39.018730 93.209244,39.018730 
	C93.206261,39.182373 93.203285,39.346012 93.200310,39.509655 
	C94.984596,40.024971 96.768883,40.540283 98.553169,41.055595 
	C98.629005,43.416794 98.704834,45.777992 98.558533,48.874470 
	C97.090576,50.395756 95.906410,51.709541 94.586777,51.863701 
	C91.306854,52.246845 87.965164,52.101223 84.648277,52.167946 
z"/>
<path fill="#B853B7" opacity="1.000000" stroke="none" 
	d="
M126.128555,34.350296 
	C126.539825,33.732212 127.015373,33.475422 127.739197,33.111176 
	C129.888397,33.669357 131.742661,34.614544 133.700180,34.941452 
	C137.575729,35.588676 141.508301,35.894333 145.209656,36.668594 
	C142.538025,36.734959 140.074066,36.473915 138.054474,36.259953 
	C138.054474,41.430771 138.054474,45.992817 138.054474,50.727940 
	C140.386887,50.941925 142.815018,51.164692 145.243149,51.387466 
	C140.103821,51.892776 134.964493,52.398087 129.229889,52.530586 
	C128.387405,51.400414 128.140167,50.643047 127.892937,49.885685 
	C127.892937,49.885685 127.940979,49.950207 128.201630,49.717720 
	C128.595963,48.475979 128.729645,47.466728 128.863342,46.457478 
	C127.973175,42.542179 127.083000,38.626884 126.128555,34.350296 
z"/>
<path fill="#C558B0" opacity="1.000000" stroke="none" 
	d="
M127.640823,50.033142 
	C128.140167,50.643047 128.387405,51.400414 128.771637,52.420559 
	C125.280701,52.782570 121.651978,52.986149 118.024933,52.959709 
	C110.003143,52.901245 106.266052,47.696396 108.506523,39.857716 
	C108.685997,39.229782 108.799698,38.583042 109.052261,37.269924 
	C109.432358,36.080902 109.704170,35.566998 109.975983,35.053097 
	C114.477707,34.416721 117.650917,36.564663 118.596123,40.647041 
	C119.373260,44.003548 118.754631,47.683212 118.754631,52.196808 
	C121.697105,51.509686 124.542900,50.845142 127.640823,50.033142 
z"/>
<path fill="#B550C1" opacity="1.000000" stroke="none" 
	d="
M145.234100,51.349510 
	C142.815018,51.164692 140.386887,50.941925 138.054474,50.727940 
	C138.054474,45.992817 138.054474,41.430771 138.054474,36.259953 
	C140.074066,36.473915 142.538025,36.734959 145.400665,36.994057 
	C149.714523,40.051212 149.922638,43.976841 147.922302,48.686829 
	C147.032440,49.513931 146.662201,49.951443 146.291977,50.388954 
	C146.291977,50.388954 146.198288,50.338715 145.961975,50.345459 
	C145.540344,50.653660 145.355042,50.955112 145.169724,51.256569 
	C145.169724,51.256569 145.225067,51.311562 145.234100,51.349510 
z"/>
<path fill="#CC67A9" opacity="1.000000" stroke="none" 
	d="
M85.023651,52.386337 
	C87.965164,52.101223 91.306854,52.246845 94.586777,51.863701 
	C95.906410,51.709541 97.090576,50.395756 98.560585,49.319130 
	C101.118965,52.336506 103.453171,55.644501 105.972168,59.187099 
	C105.836372,59.822266 105.515770,60.222824 105.003677,60.954369 
	C103.721237,60.579556 102.069603,60.122482 101.628601,59.128365 
	C98.287628,51.596916 91.524635,52.959137 85.023651,52.386337 
z"/>
<path fill="#BB45B4" opacity="1.000000" stroke="none" 
	d="
M139.999268,63.716438 
	C138.286179,63.998962 136.571152,63.999454 134.427444,64.000786 
	C130.968826,64.001160 127.938866,64.000687 124.454910,64.000870 
	C120.641052,64.000076 117.281189,63.998634 113.464020,63.996597 
	C113.004684,63.824966 113.002647,63.653919 113.443085,63.234810 
	C116.264282,62.993000 118.642998,62.999252 121.486458,63.004101 
	C126.943581,62.761036 131.935959,62.519371 136.928345,62.277706 
	C137.695496,62.240101 138.462646,62.202496 139.608673,62.235733 
	C139.990814,62.682518 139.994064,63.058464 139.999268,63.716438 
z"/>
<path fill="#C84B99" opacity="1.000000" stroke="none" 
	d="
M109.520584,34.992302 
	C109.704170,35.566998 109.432358,36.080902 109.045212,36.862827 
	C105.757332,37.541451 102.584793,37.952057 98.948402,38.679855 
	C98.484550,38.997047 97.998116,39.007347 97.998116,39.007347 
	C97.998756,37.968346 97.999397,36.929340 97.997078,35.501041 
	C101.684479,35.051666 105.374840,34.991585 109.520584,34.992302 
z"/>
<path fill="#AD53C0" opacity="1.000000" stroke="none" 
	d="
M136.473602,62.196457 
	C131.935959,62.519371 126.943581,62.761036 121.486969,62.805290 
	C121.022743,62.607876 121.032166,62.210487 121.032166,62.210487 
	C126.027733,62.178726 131.023300,62.146969 136.473602,62.196457 
z"/>
<path fill="#CC67A9" opacity="1.000000" stroke="none" 
	d="
M111.157379,61.480450 
	C110.344223,62.383038 109.262123,63.053288 108.253288,63.678162 
	C107.575195,62.423004 106.989906,61.339634 106.345322,59.951904 
	C107.820175,60.181065 109.354309,60.714588 111.157379,61.480450 
z"/>
<path fill="#CC67A9" opacity="1.000000" stroke="none" 
	d="
M97.614288,39.013039 
	C97.998116,39.007347 98.484550,38.997047 98.727768,38.995949 
	C98.933144,39.466114 98.895302,39.937382 98.705307,40.732124 
	C96.768883,40.540283 94.984596,40.024971 93.200310,39.509655 
	C93.203285,39.346012 93.206261,39.182373 93.209244,39.018730 
	C94.549644,39.018730 95.890053,39.018730 97.614288,39.013039 
z"/>
<path fill="#CC67A9" opacity="1.000000" stroke="none" 
	d="
M120.584663,62.138641 
	C121.032166,62.210487 121.022743,62.607876 121.022232,62.806686 
	C118.642998,62.999252 116.264282,62.993000 113.440529,62.978233 
	C112.741219,62.757500 112.486938,62.545280 112.117981,62.109764 
	C114.714584,61.946579 117.425873,62.006687 120.584663,62.138641 
z"/>
<path fill="#B853B7" opacity="1.000000" stroke="none" 
	d="
M146.607773,50.392746 
	C146.662201,49.951443 147.032440,49.513931 147.714859,49.037052 
	C147.659225,49.463966 147.291397,49.930252 146.607773,50.392746 
z"/>
<path fill="#B853B7" opacity="1.000000" stroke="none" 
	d="
M145.452667,51.217548 
	C145.355042,50.955112 145.540344,50.653660 145.998932,50.307251 
	C146.093323,50.567703 145.914459,50.873116 145.452667,51.217548 
z"/>
<path fill="#C558B0" opacity="1.000000" stroke="none" 
	d="
M128.626328,46.751686 
	C128.729645,47.466728 128.595963,48.475979 128.162735,49.727997 
	C128.038574,48.995808 128.213943,48.020851 128.626328,46.751686 
z"/>
<path fill="#D15191" opacity="1.000000" stroke="none" 
	d="
M76.248215,59.839485 
	C75.714851,60.556240 75.119911,61.300560 74.524963,62.044876 
	C74.274811,61.803043 74.024651,61.561211 73.774498,61.319374 
	C74.378540,60.857018 74.982590,60.394661 75.907669,59.835567 
	C76.228706,59.738834 76.186630,59.867054 76.248215,59.839485 
z"/>
<path fill="#DF5280" opacity="1.000000" stroke="none" 
	d="
M63.844856,50.436745 
	C64.000328,49.965248 64.199684,49.490269 64.399033,49.015285 
	C64.345581,49.372662 64.292137,49.730042 64.072968,50.303368 
	C63.907242,50.519321 63.888729,50.433262 63.844856,50.436745 
z"/>
<path fill="#160B0A" opacity="1.000000" stroke="none" 
	d="
M82.794540,189.100021 
	C81.758118,190.218430 80.842102,191.027481 79.968506,192.166992 
	C80.010933,192.497452 79.972420,192.456833 79.972420,192.456833 
	C77.453270,193.645020 75.022499,195.098129 72.398964,195.973434 
	C63.256344,199.023788 54.871815,197.274857 47.823841,190.817291 
	C40.964317,184.532379 39.079098,176.443863 41.376949,167.558411 
	C42.199940,164.376053 41.297771,160.126251 45.856647,158.286575 
	C51.980522,153.270874 58.327251,149.647522 66.352051,150.462570 
	C84.824425,152.338715 95.182541,173.080017 82.794540,189.100021 
M57.450832,190.713593 
	C62.896843,192.600983 68.181465,192.593826 73.877182,189.194946 
	C80.704720,185.034195 83.778168,178.829422 82.438698,171.082977 
	C81.239044,164.145187 77.350380,158.932541 69.478058,156.779922 
	C68.868744,156.780106 68.259430,156.780289 67.163071,156.238632 
	C66.456802,156.207657 65.750526,156.176682 64.238297,155.942825 
	C60.488926,157.292603 56.739559,158.642380 52.326099,160.196793 
	C40.774330,170.026932 46.459408,187.366974 57.450832,190.713593 
z"/>
<path fill="#F09F39" opacity="1.000000" stroke="none" 
	d="
M69.702271,148.753235 
	C67.236702,148.678589 65.021111,148.443527 62.853249,148.213516 
	C64.689819,145.064621 65.304337,145.084885 69.702271,148.753235 
z"/>
<path fill="#F09F39" opacity="1.000000" stroke="none" 
	d="
M57.012875,147.987549 
	C57.416443,148.103210 57.809418,148.229477 58.202393,148.355743 
	C57.881218,148.365891 57.560051,148.376038 57.112030,148.204224 
	C56.985176,148.022247 57.002277,147.998169 57.012875,147.987549 
z"/>
<path fill="#F09F39" opacity="1.000000" stroke="none" 
	d="
M49.002426,152.003174 
	C49.004852,152.006363 48.746075,152.421860 48.746075,152.421860 
	C48.746075,152.421860 48.758938,152.100754 48.876259,152.047974 
	C48.993580,151.995193 49.000000,152.000000 49.002426,152.003174 
z"/>
<path fill="#13080D" opacity="1.000000" stroke="none" 
	d="
M150.792908,153.258682 
	C167.043686,147.553391 177.999100,151.568863 185.198334,165.983856 
	C185.473923,166.800903 185.658813,167.000473 185.947632,167.103836 
	C185.947632,167.103836 185.964371,167.024719 185.902802,167.376404 
	C185.968246,168.151230 186.095276,168.574356 186.222321,168.997482 
	C186.312119,169.840973 186.401932,170.684479 186.597443,172.152573 
	C186.743286,173.497116 186.783417,174.217041 186.823547,174.936981 
	C186.596069,176.058868 186.368576,177.180756 186.179382,178.650513 
	C183.455948,188.810608 177.031738,195.002029 167.141510,196.993210 
	C151.487656,200.144806 137.752716,187.321198 138.620422,172.428284 
	C138.591202,171.534210 138.661667,171.071335 138.827759,169.913086 
	C139.371323,167.520447 139.819244,165.823181 140.267151,164.125931 
	C140.267166,164.125931 140.147217,164.091019 140.385498,164.037170 
	C140.746048,163.657654 140.868301,163.332001 140.990540,163.006363 
	C144.187515,159.843079 147.384476,156.679794 150.792908,153.258682 
M171.768356,158.248764 
	C171.249161,158.016602 170.729980,157.784439 169.664856,157.127090 
	C168.101746,156.809860 166.538651,156.492645 164.509354,155.954437 
	C164.342804,155.997238 164.176239,156.040054 163.264587,155.877243 
	C162.503891,155.955368 161.743210,156.033478 160.217514,155.957672 
	C149.615585,158.075745 143.049545,166.193054 144.194168,175.766647 
	C145.405960,185.902054 152.444443,191.598740 163.848389,191.138504 
	C166.498795,190.566925 169.149200,189.995361 172.422897,189.298004 
	C182.479050,182.260727 184.036591,170.548767 175.788834,161.269836 
	C174.558914,160.421402 173.329010,159.572968 171.768356,158.248764 
z"/>
<path fill="#E24E33" opacity="1.000000" stroke="none" 
	d="
M139.923523,164.233795 
	C139.819244,165.823181 139.371323,167.520447 138.776443,169.564209 
	C138.946289,168.054382 139.263107,166.198013 139.923523,164.233795 
z"/>
<path fill="#E24E33" opacity="1.000000" stroke="none" 
	d="
M140.773102,163.146423 
	C140.868301,163.332001 140.746048,163.657654 140.384216,164.099609 
	C140.281647,163.906097 140.418655,163.596283 140.773102,163.146423 
z"/>
<path fill="#A84ECD" opacity="1.000000" stroke="none" 
	d="
M168.417053,92.771042 
	C168.594345,92.824936 168.653702,92.951874 168.713058,93.078804 
	C168.575073,93.000572 168.437088,92.922333 168.417053,92.771042 
z"/>
<path fill="#EF9930" opacity="1.000000" stroke="none" 
	d="
M79.986557,192.474762 
	C80.568329,193.145737 81.174469,193.839417 81.780609,194.533096 
	C81.357986,194.710251 80.935356,194.887405 80.512733,195.064560 
	C80.274239,194.383133 80.035736,193.701691 79.884827,192.738556 
	C79.972420,192.456833 80.010933,192.497452 79.986557,192.474762 
z"/>
<path fill="#A84ECD" opacity="1.000000" stroke="none" 
	d="
M155.648483,109.575348 
	C156.055450,109.681648 156.301880,109.941078 156.548309,110.200500 
	C156.440933,110.302452 156.333572,110.404404 156.226227,110.506363 
	C155.980133,110.247063 155.734039,109.987762 155.648483,109.575348 
z"/>
<path fill="#E24E33" opacity="1.000000" stroke="none" 
	d="
M187.166061,174.901123 
	C186.783417,174.217041 186.743286,173.497116 186.770447,172.421707 
	C189.114700,172.507156 189.630234,173.370209 187.166061,174.901123 
z"/>
<path fill="#E24E33" opacity="1.000000" stroke="none" 
	d="
M186.495041,168.935028 
	C186.095276,168.574356 185.968246,168.151230 185.866364,167.393951 
	C186.422256,167.313065 186.953003,167.566330 187.483765,167.819611 
	C187.245102,168.170593 187.006424,168.521576 186.495041,168.935028 
z"/>
<path fill="#E24E33" opacity="1.000000" stroke="none" 
	d="
M185.900757,166.909988 
	C185.658813,167.000473 185.473923,166.800903 185.388214,166.295013 
	C185.599197,166.251419 185.755997,166.461823 185.900757,166.909988 
z"/>
<path fill="#DA5183" opacity="1.000000" stroke="none" 
	d="
M73.192284,189.372620 
	C68.181465,192.593826 62.896843,192.600983 57.277523,190.078339 
	C58.191109,188.620148 59.278000,187.797211 60.317886,187.009857 
	C59.952366,185.900848 59.291748,184.848770 59.316620,183.813141 
	C59.450336,178.245773 59.868614,172.684601 59.969921,167.117294 
	C60.087234,160.670517 59.832756,160.510193 52.990196,159.992157 
	C56.739559,158.642380 60.488926,157.292603 64.907150,156.271881 
	C66.267372,156.660782 66.958748,156.720642 67.650116,156.780472 
	C68.259430,156.780289 68.868744,156.780106 69.807892,157.290863 
	C70.599762,158.799515 71.508118,159.823441 71.451302,160.790695 
	C71.086227,167.006119 70.359329,173.202545 70.087349,179.419922 
	C69.996872,181.488144 70.895203,183.599609 71.375328,185.849960 
	C71.069008,185.995285 70.276207,186.371414 69.229736,186.867905 
	C70.818527,187.872177 72.005409,188.622391 73.192284,189.372620 
M64.558899,160.512512 
	C64.558899,160.512512 64.479286,160.554199 64.558899,160.512512 
z"/>
<path fill="#E0527B" opacity="1.000000" stroke="none" 
	d="
M52.658150,160.094482 
	C59.832756,160.510193 60.087234,160.670517 59.969921,167.117294 
	C59.868614,172.684601 59.450336,178.245773 59.316620,183.813141 
	C59.291748,184.848770 59.952366,185.900848 60.317886,187.009857 
	C59.278000,187.797211 58.191109,188.620148 57.031036,189.784454 
	C46.459408,187.366974 40.774330,170.026932 52.658150,160.094482 
z"/>
<path fill="#CF5088" opacity="1.000000" stroke="none" 
	d="
M73.534729,189.283783 
	C72.005409,188.622391 70.818527,187.872177 69.229736,186.867905 
	C70.276207,186.371414 71.069008,185.995285 71.375328,185.849960 
	C70.895203,183.599609 69.996872,181.488144 70.087349,179.419922 
	C70.359329,173.202545 71.086227,167.006119 71.451302,160.790695 
	C71.508118,159.823441 70.599762,158.799515 70.066719,157.481155 
	C77.350380,158.932541 81.239044,164.145187 82.438698,171.082977 
	C83.778168,178.829422 80.704720,185.034195 73.534729,189.283783 
z"/>
<path fill="#CF5088" opacity="1.000000" stroke="none" 
	d="
M67.406593,156.509552 
	C66.958748,156.720642 66.267372,156.660782 65.310135,156.373322 
	C65.750526,156.176682 66.456802,156.207657 67.406593,156.509552 
z"/>
<path fill="#A84ECF" opacity="1.000000" stroke="none" 
	d="
M160.982513,156.111588 
	C161.743210,156.033478 162.503891,155.955368 163.721176,156.122147 
	C164.177765,156.367050 164.614410,156.482315 164.614410,156.482315 
	C164.614410,156.482315 164.975540,156.175430 164.975540,156.175430 
	C166.538651,156.492645 168.101746,156.809860 169.775070,157.716949 
	C169.759979,161.199310 169.377548,164.108109 169.559586,166.981140 
	C170.028809,174.387665 170.746231,181.778503 171.383896,189.173935 
	C171.392059,189.268463 171.655380,189.340988 171.799606,189.423782 
	C169.149200,189.995361 166.498795,190.566925 163.419373,190.667908 
	C162.480270,189.067383 162.115707,187.059372 161.437057,186.946899 
	C156.179138,186.075668 156.913528,182.286453 156.979523,178.675171 
	C157.055374,174.524872 157.161789,170.363708 156.950546,166.222794 
	C156.742874,162.152252 157.796127,158.748718 160.982513,156.111588 
z"/>
<path fill="#A94DC1" opacity="1.000000" stroke="none" 
	d="
M160.600006,156.034637 
	C157.796127,158.748718 156.742874,162.152252 156.950546,166.222794 
	C157.161789,170.363708 157.055374,174.524872 156.979523,178.675171 
	C156.913528,182.286453 156.179138,186.075668 161.437057,186.946899 
	C162.115707,187.059372 162.480270,189.067383 162.993729,190.591187 
	C152.444443,191.598740 145.405960,185.902054 144.194168,175.766647 
	C143.049545,166.193054 149.615585,158.075745 160.600006,156.034637 
z"/>
<path fill="#A04DD4" opacity="1.000000" stroke="none" 
	d="
M172.111252,189.360901 
	C171.655380,189.340988 171.392059,189.268463 171.383896,189.173935 
	C170.746231,181.778503 170.028809,174.387665 169.559586,166.981140 
	C169.377548,164.108109 169.759979,161.199310 170.048035,157.929535 
	C170.729980,157.784439 171.249161,158.016602 171.950745,158.827316 
	C173.446259,160.222137 174.759399,161.038391 176.072540,161.854645 
	C184.036591,170.548767 182.479050,182.260727 172.111252,189.360901 
z"/>
<path fill="#A84ECF" opacity="1.000000" stroke="none" 
	d="
M175.930695,161.562241 
	C174.759399,161.038391 173.446259,160.222137 172.116104,159.065201 
	C173.329010,159.572968 174.558914,160.421402 175.930695,161.562241 
z"/>
<path fill="#A94DC1" opacity="1.000000" stroke="none" 
	d="
M164.742447,156.064941 
	C164.975540,156.175430 164.614410,156.482315 164.614410,156.482315 
	C164.614410,156.482315 164.177765,156.367050 164.093719,156.224945 
	C164.176239,156.040054 164.342804,155.997238 164.742447,156.064941 
z"/>
<path fill="#E0527B" opacity="1.000000" stroke="none" 
	d="
M64.519089,160.533356 
	C64.479286,160.554199 64.558899,160.512512 64.519089,160.533356 
z"/>
</svg>